<svg width="541" height="343" viewBox="0 0 541 343" fill="none" xmlns="http://www.w3.org/2000/svg">
<path d="M511.583 0.997526C511.583 1.69696 513.681 4.39476 516.179 6.99264L520.776 11.5889L518.577 15.8854C516.279 20.4816 516.579 22.0803 519.277 19.6823C522.074 17.3842 535.464 10.8895 537.562 10.8895C538.561 10.8895 539.66 10.4898 540.06 9.9902C540.759 8.79117 537.462 6.89272 534.664 6.89272C533.365 6.89272 532.366 5.79362 531.567 3.39557C530.268 -0.601171 528.569 -1.20068 528.569 2.29647C528.569 5.89354 527.37 6.09337 523.473 3.39557C519.377 0.597852 511.583 -1.00085 511.583 0.997526Z" fill="#2B2B2B"/>
<path d="M443.639 117.803C443.639 121.3 445.837 126.196 448.934 129.493L450.933 131.791L447.835 132.89C442.639 134.689 444.138 135.788 452.032 135.788C458.327 135.788 460.225 135.288 465.521 132.591C468.818 130.892 471.616 129.094 471.616 128.694C471.616 127.695 465.821 125.796 464.322 126.296C463.622 126.596 462.323 125.397 461.424 123.798C459.726 120.9 457.128 119.002 456.029 120.001C455.829 120.301 456.029 121.799 456.628 123.298C457.827 126.496 458.027 126.596 448.934 119.002L443.639 114.605V117.803Z" fill="#2B2B2B"/>
<path d="M290.264 178.853C282.17 180.751 268.781 185.148 268.781 185.947C268.781 186.347 271.479 186.746 274.776 186.746C281.271 186.746 281.771 187.146 283.17 193.94C283.869 196.938 290.264 203.732 292.462 203.732C294.76 203.732 295.16 200.835 293.961 192.342C292.862 183.349 293.061 182.75 298.457 182.75C300.156 182.75 302.354 182.45 303.253 182.15C304.552 181.65 304.252 181.151 301.754 179.652C298.457 177.554 296.359 177.454 290.264 178.853Z" fill="#2B2B2B"/>
<path d="M120.801 190.943C120.801 191.143 120.502 193.042 120.302 195.14C119.502 201.335 121.801 205.531 128.295 210.128C130.194 211.427 129.994 211.626 125.298 214.124L120.402 216.822L128.995 216.423C136.389 216.123 138.287 215.723 143.183 212.925C146.281 211.127 149.878 209.728 151.177 209.728C152.476 209.728 153.874 209.428 154.174 209.029C155.173 208.029 151.776 204.732 149.778 204.732C148.479 204.732 147.779 203.433 146.88 198.937C146.281 195.839 145.581 192.642 145.381 191.943C144.782 190.244 142.883 190.444 142.883 192.142C142.883 193.441 139.186 202.734 138.387 203.633C138.187 203.833 134.39 201.035 129.994 197.338C123 191.443 121.101 190.144 120.801 190.943Z" fill="#2B2B2B"/>
<path d="M8.89275 309.347C8.29324 314.542 11.1909 331.928 13.0893 334.226C14.5881 336.025 10.1917 337.024 4.39642 336.225C1.99837 335.925 0 336.025 0 336.525C0 337.024 2.89764 338.623 6.49471 340.022C14.3883 343.119 21.0828 343.319 28.8765 340.721C31.9739 339.622 35.7708 338.523 37.2696 338.123L40.1673 337.524L37.5694 335.525C36.1705 334.426 33.9723 333.627 32.7733 333.827C30.7749 334.127 29.8757 333.027 26.7782 326.633C22.3818 317.84 20.9829 316.041 15.0877 311.845C10.6913 308.647 9.09259 308.048 8.89275 309.347Z" fill="#2B2B2B"/>
</svg>
