<svg width="132" height="78" viewBox="0 0 132 78" fill="none" xmlns="http://www.w3.org/2000/svg">
<path d="M9.34736 1.0998C9.04736 1.8998 8.34736 4.9998 7.74736 7.9998C6.84736 12.6998 6.24736 13.6998 3.54736 14.9998C-0.752638 16.9998 -1.25264 18.9998 2.64736 18.9998C4.34736 18.9998 7.74736 20.2998 10.3474 21.8998C12.8474 23.5998 17.1474 25.3998 19.8474 25.8998C29.9474 28.0998 37.1474 26.5998 29.2474 23.9998C27.3474 23.3998 25.5474 22.3998 25.2474 21.8998C24.8474 21.3998 26.4474 19.2998 28.5474 17.2998C30.7474 15.1998 32.9474 11.8998 33.4474 9.9998C34.5474 6.1998 34.0474 -0.00020487 32.7474 -0.00020487C32.3474 -0.00020487 28.3474 3.0998 23.8474 6.9998C19.4474 10.7998 15.5474 13.9998 15.2474 13.9998C14.9474 13.9998 14.7474 13.0998 14.7474 11.9998C14.7474 9.8998 11.9474 2.0998 10.6474 0.599795C10.1474 -0.00020487 9.64736 0.299795 9.34736 1.0998Z" fill="#2B2B2B"/>
<path d="M123.247 60.5002C114.747 67.3002 113.847 67.5002 115.747 62.6002C116.447 60.6002 116.347 60.0002 115.347 60.0002C113.847 60.0002 108.747 65.5002 108.747 67.1002C108.747 67.6002 107.647 67.8002 106.347 67.4002C104.947 67.1002 102.647 67.5002 100.747 68.5002L97.4473 70.2002L102.347 73.0002C109.547 77.1002 114.247 78.2002 123.247 77.8002L131.247 77.5002L127.047 75.7002L122.747 73.8002L125.147 70.7002C126.447 68.9002 127.947 66.5002 128.547 65.4002C130.047 62.5002 131.647 55.0002 130.847 55.0002C130.447 55.0002 127.047 57.5002 123.247 60.5002Z" fill="#2B2B2B"/>
</svg>
