<svg width="75" height="100" viewBox="0 0 75 100" fill="none" xmlns="http://www.w3.org/2000/svg">
<path d="M55.8642 3.28932C46.3813 7.94452 49.5766 9.24364 63.0795 6.10409C64.2134 5.88757 64.7287 7.18669 64.9349 11.3006C65.2441 16.7136 65.2441 16.8219 62.358 16.3888C60.8119 16.064 57.3073 16.9301 54.6273 18.121L49.6797 20.2862V14.9814C49.6797 9.24364 48.1336 4.58844 45.969 3.72236C44.9382 3.28932 44.5259 4.26366 44.5259 7.51147C44.5259 9.8932 44.0105 15.198 43.3921 19.3119C42.4644 25.591 42.5675 27.2149 44.0105 30.0296C44.8351 31.8701 46.0721 33.3857 46.5874 33.3857C48.1336 33.3857 49.6797 29.4883 49.6797 25.3744C49.6797 22.4514 50.092 21.6936 51.2258 22.0184C56.3796 23.7505 56.1735 23.3175 53.3904 28.4057C50.2982 33.927 50.092 35.5509 52.1535 35.5509C54.4212 35.5509 55.2458 37.6079 53.8027 39.34C51.5351 42.2631 55.2458 41.1805 59.8842 37.6079C65.141 33.7105 65.2441 30.5709 60.1934 30.7875C58.3381 30.8957 56.895 30.6792 56.895 30.2462C56.895 29.8131 58.7504 27.6479 61.018 25.4827L65.141 21.5853V52.223C65.141 86.9746 65.038 87.4077 58.6473 85.5672C55.8642 84.7011 54.8335 84.8094 54.8335 85.6755C54.8335 87.2994 65.7595 99.4246 67.2026 99.4246C67.7179 99.4246 69.161 98.4502 70.2948 97.2594C72.2533 95.2024 72.3563 93.6868 72.3563 56.8782C72.3563 32.4114 72.7686 16.3888 73.4902 12.3832C74.7271 6.32061 74.624 6.21235 71.841 3.0728C68.0272 -1.0411 64.6257 -1.0411 55.8642 3.28932Z" fill="black"/>
<path d="M18.1386 4.69658C15.2524 6.10397 11.6448 7.83613 10.0987 8.37744C8.65561 9.027 7.4187 10.0013 7.4187 10.6509C7.4187 12.8161 10.9233 13.1409 15.7678 11.4087C18.3447 10.4344 21.0247 9.5683 21.6431 9.5683C22.3647 9.5683 22.5708 12.4913 22.1585 17.9044C21.7462 25.4826 21.3339 26.6734 18.6539 29.2717C17.0047 31.0039 15.1494 32.303 14.634 32.303C12.8817 32.303 13.9125 25.8074 15.7678 25.2661C16.6955 24.9413 18.2416 23.7504 19.0662 22.7761C20.6124 21.0439 20.6124 20.6109 19.1693 18.4457C17.2109 15.5226 12.5725 15.3061 10.2017 18.0126C7.831 20.7191 8.03715 21.4769 10.8202 21.1522C12.3663 21.0439 12.9848 21.4769 12.6756 22.5596C12.4694 23.4256 12.2633 24.6165 12.1602 25.2661C12.0571 25.8074 11.3356 28.1891 10.614 30.4626C9.48021 33.9269 9.48021 34.9012 10.9233 37.1747C12.8817 40.206 16.7986 40.7473 18.757 38.2573C20.4062 36.2004 21.8493 36.2004 23.3954 38.4738C24.1169 39.4482 25.3539 39.9895 26.3846 39.5564C27.6215 39.0151 28.0338 37.3912 28.0338 32.8443C28.0338 29.4882 28.5492 25.6991 29.1677 24.5082C29.9923 22.7761 29.9923 22.1265 28.9615 21.3687C27.8277 20.7191 27.8277 19.6365 28.8584 15.5226C30.6107 8.70222 30.4046 7.72787 27.5184 4.69658C24.4262 1.44877 24.6323 1.44877 18.1386 4.69658Z" fill="black"/>
<path d="M2.36803 29.1636C2.47111 34.1436 2.16188 48.9753 1.74958 62.0748L0.924973 85.8921L3.60494 89.1399L6.18183 92.3877L7.31566 89.3564C8.03719 87.4077 8.44949 75.3908 8.44949 57.4196C8.44949 32.0866 8.24334 28.081 6.59413 24.8332C3.29571 17.9045 2.0588 19.2037 2.36803 29.1636Z" fill="black"/>
<path d="M30.1984 34.3601C29.3738 34.9014 29.0646 36.0923 29.3738 36.9584C29.9923 38.5823 25.3539 46.377 22.9831 48.0009C22.3647 48.3257 21.8493 49.0835 21.8493 49.7331C21.8493 51.6818 24.4262 50.7074 29.4769 46.9183C37.0014 41.2888 41.3306 41.9383 35.4553 47.7844C33.703 49.6248 31.023 50.8157 28.0338 51.2487C20.5093 52.3313 18.757 52.8726 18.757 53.9552C18.757 54.6048 20.6124 55.0379 22.777 55.0379C25.0446 55.0379 27.2092 55.4709 27.5184 56.1205C27.8277 56.6618 25.3539 59.26 21.9524 61.75C18.5509 64.3483 15.6647 66.73 15.6647 67.163C15.6647 68.3539 20.2001 68.2456 23.1893 67.0548C25.6631 66.0804 25.7662 66.1887 26.3846 72.3595C27.2092 79.613 30.3015 84.9177 32.1568 82.103C32.6722 81.2369 33.1876 78.4221 33.1876 75.8239C33.1876 72.143 32.5691 70.5191 30.3015 68.1374L27.5184 65.1061L31.7445 61.1004C36.6922 56.6618 39.0629 56.337 49.6797 58.827C58.8534 60.9922 61.2242 60.8839 60.8119 58.6104C60.1934 55.3626 54.0089 51.8983 47.5151 51.1405L41.5367 50.3827L44.5259 46.4853C48.1336 41.9383 48.3397 40.8557 45.5567 38.2575C43.8044 36.6336 43.0829 36.5253 40.9183 37.4997C38.6506 38.5823 38.3414 38.474 38.3414 36.7418C38.3414 33.9271 33.0845 32.4114 30.1984 34.3601Z" fill="black"/>
<path d="M35.9706 63.1572C30.3015 64.7811 29.58 65.2142 30.6107 66.8381C31.4353 68.3537 35.7645 68.3537 40.2998 66.9463C42.2583 66.405 44.1136 66.0803 44.3198 66.405C45.2475 67.3794 39.6814 76.1485 37.3106 77.4476C33.4968 79.5046 34.1153 81.5615 38.7537 81.8863C45.3505 82.4276 47.6182 81.4532 47.6182 77.8806C47.6182 76.1485 48.3397 74.1998 49.1643 73.442C51.1228 71.7098 51.1228 66.9463 49.0612 63.9151C47.2059 61.1003 43.5982 60.992 35.9706 63.1572Z" fill="black"/>
</svg>
