<svg width="80" height="104" viewBox="0 0 80 104" fill="none" xmlns="http://www.w3.org/2000/svg">
<path d="M33.4337 2.71906C30.6507 4.12645 27.2492 5.31731 26.0123 5.31731C22.92 5.31731 22.0954 7.15774 24.5692 8.45686C30.0322 11.5964 47.3489 8.24034 47.3489 4.12645C47.3489 -0.528751 41.0613 -1.17831 33.4337 2.71906Z" fill="black"/>
<path d="M48.895 11.8132C40.5459 13.7619 39.4121 13.8702 36.4229 12.3545C34.5675 11.4885 32.4029 10.7306 31.4752 10.7306C29.6199 10.7306 29.2076 13.4371 30.8568 14.5197C31.4752 14.8445 31.8875 15.6023 31.8875 16.0354C31.8875 17.0097 22.6107 20.1493 16.6324 21.1236L12.2001 21.8814L14.4678 24.3714C17.3539 27.6193 20.8585 27.6193 27.1461 24.6962C29.723 23.5054 32.4029 22.8558 32.9183 23.1806C33.5368 23.5054 33.9491 26.4284 33.9491 29.6762C33.9491 32.924 34.4644 35.847 34.9798 36.1718C35.8044 36.7131 35.7013 37.3627 34.8767 38.4453C33.9491 39.6362 34.1552 39.9609 36.2167 39.9609C39.9274 39.9609 52.915 30.2175 53.3273 27.1862C53.8426 23.2888 50.8535 19.3915 47.3489 19.3915C44.3597 19.3915 43.2259 20.7988 45.2874 22.098C47.2458 23.3971 46.3181 25.9953 42.092 30.7588C39.7213 33.4653 37.6598 35.5223 37.4536 35.414C37.1444 34.981 40.752 20.9071 41.6797 19.4997C42.5043 17.9841 56.8318 14.8445 60.7487 15.2776C65.6963 15.7106 65.6963 17.8758 60.8518 22.531C58.481 24.8045 56.6257 26.9697 56.6257 27.2945C56.6257 28.3771 61.7795 28.1606 66.2117 26.8614C74.0455 24.588 76.6224 17.8758 71.5717 12.8958C68.0671 9.4315 60.6456 9.10672 48.895 11.8132Z" fill="black"/>
<path d="M5.70638 25.4546C5.29408 27.0785 3.85102 29.8933 2.40796 31.6255C-0.581232 35.3063 -0.787383 38.9872 1.78951 41.3689C4.7787 44.1837 6.11868 43.6424 8.28327 38.3376C10.8602 32.275 10.654 23.3977 8.07712 22.8564C6.94329 22.6398 6.11868 23.5059 5.70638 25.4546Z" fill="black"/>
<path d="M18.5908 33.8981C17.3539 35.955 16.7355 38.3367 17.0447 39.3111C17.9724 41.6928 23.8477 41.5845 26.0123 39.0946C28.6923 36.0633 28.28 34.2228 25.1877 34.9807C22.92 35.6302 22.6108 35.3054 22.6108 32.9237C22.6108 29.1346 21.1677 29.5676 18.5908 33.8981Z" fill="black"/>
<path d="M43.5351 41.5845C38.9998 46.5645 37.0413 47.6471 37.0413 44.9406C37.0413 43.2084 34.3614 39.9606 32.8152 39.9606C32.2998 39.9606 31.8875 44.291 31.8875 49.4875C31.8875 57.607 32.1968 59.4475 33.846 60.9631C36.4229 63.4531 37.6598 62.587 38.4844 57.8236C38.9998 54.9005 39.7213 54.0345 41.3705 54.0345C43.432 54.0345 43.5351 54.1427 41.6797 56.1997C40.649 57.3905 40.1336 58.4731 40.4428 58.4731C40.8551 58.5814 41.5766 58.6897 42.1951 58.7979C42.7105 58.7979 44.5658 60.9631 46.4212 63.5614C50.0288 68.6496 50.8535 68.7579 53.9457 64.5357C56.9349 60.3136 57.7595 42.0175 55.0796 38.878C51.9873 35.3054 48.4827 36.1715 43.5351 41.5845ZM50.9565 45.6984C51.3688 48.2967 51.2658 51.9775 50.7504 54.0345C49.9258 57.174 49.3073 57.8236 46.7304 58.1483L43.7412 58.4731L46.6274 56.5244C48.1735 55.4418 49.4104 54.0345 49.4104 53.2766C49.4104 51.2197 45.4935 49.4875 42.9166 50.3536C40.8551 51.0032 40.752 50.8949 42.1951 49.0545C44.9781 45.1571 48.7919 41.0432 49.5135 41.0432C49.9258 41.0432 50.6473 43.1002 50.9565 45.6984Z" fill="black"/>
<path d="M19.7247 49.9207C19.7247 51.8694 19.4154 55.3338 19.0031 57.499C18.0755 62.3707 19.0031 67.0259 21.0647 67.0259C23.4354 67.0259 24.6723 63.345 24.6723 56.7411C24.6723 50.1373 23.4354 46.4564 21.0647 46.4564C20.137 46.4564 19.7247 47.6473 19.7247 49.9207Z" fill="black"/>
<path d="M35.289 64.3193C30.8568 67.5671 22.5076 71.4645 18.2815 72.2223C15.9108 72.6554 13.8493 73.5215 13.6431 74.171C13.1278 75.9032 18.4877 76.7693 22.9199 75.6867L26.7337 74.8206L23.7445 78.8262C19.3123 84.6723 12.3032 91.1679 6.84015 94.524C1.06792 98.0966 0.552539 100.045 5.50017 99.1792C11.3755 98.2048 16.6323 95.0653 21.2707 89.7605C33.4337 75.9032 38.0721 71.0315 37.5567 72.5471C37.1444 73.6297 37.3505 74.6041 37.8659 75.0371C38.3813 75.3619 38.5874 79.3675 38.2782 84.0227C37.8659 91.4927 38.0721 92.7918 40.1336 95.4983C41.3705 97.1222 44.3597 99.6122 46.6273 100.911C55.2857 105.675 75.7977 102.752 79.0961 96.2562C80.4361 93.4414 80.0238 88.2449 78.0654 82.9401C76.6223 79.0427 75.3854 79.2593 74.6639 83.6979C73.8393 88.2449 69.8193 92.2505 64.3563 94.0909C58.481 96.1479 48.895 95.8231 45.6996 93.5496C43.1228 91.8175 43.0197 91.3844 43.6381 85.1053C44.9781 72.2223 44.9781 72.1141 42.2982 70.7067L39.9274 69.4076L42.092 68.6497C43.7412 68.1084 44.2566 67.2424 44.0504 65.6185C43.6381 62.5872 38.5874 61.8293 35.289 64.3193Z" fill="black"/>
</svg>
