<svg width="78" height="106" viewBox="0 0 78 106" fill="none" xmlns="http://www.w3.org/2000/svg">
<path d="M35.7872 1.594C35.7872 2.24356 36.5087 3.86747 37.3333 5.1666C38.261 6.68224 38.8794 11.1209 39.0856 17.7248L39.3948 27.793L28.0565 32.0152C16.8213 36.2373 16.7182 36.2373 14.9659 34.0721C14.0382 32.8813 12.9044 31.9069 12.389 32.0152C11.9767 32.0152 9.81212 34.2886 7.7506 36.8869C3.62758 41.9751 2.59682 47.4964 5.07064 50.0947C7.13215 52.2599 8.78136 51.6103 13.2136 46.9551C18.7797 41.1091 30.118 35.696 44.8578 31.7987C56.8146 28.5508 68.7714 27.6848 68.7714 29.85C68.7714 30.4995 67.1221 32.773 65.1637 34.8299C63.1022 36.9952 61.7622 38.9438 62.0714 39.2686C62.6899 39.9182 73.6159 37.5365 75.9866 36.3456C79.9035 34.1804 77.5328 27.0352 72.1729 24.6535C67.8437 22.813 62.1745 22.813 52.6916 24.9783C48.3624 25.8443 44.7547 26.4939 44.5486 26.2774C44.4455 26.0609 44.9609 22.1635 45.6824 17.5083C47.2286 8.19789 46.6101 5.05833 42.7963 2.24356C40.2194 0.294876 35.7872 -0.0299034 35.7872 1.594Z" fill="black"/>
<path d="M55.1654 7.87303C53.207 8.30608 52.5885 11.3374 54.3408 11.3374C56.5054 11.3374 55.2685 14.4769 51.5577 18.266C46.0947 23.7873 48.0532 25.4112 55.3715 21.4056C61.9684 17.7247 63.4114 15.776 62.0715 11.7704C61.0407 8.73912 58.1546 7.11521 55.1654 7.87303Z" fill="black"/>
<path d="M23.0058 19.1326C20.635 22.5969 20.8412 28.3347 23.315 29.7421C24.4488 30.2834 25.5827 30.8247 25.8919 30.8247C27.2319 30.8247 35.8902 20.973 35.3748 20.1069C35.0656 19.5656 33.2103 19.5656 31.1487 19.9987C28.0565 20.7565 27.5411 20.54 27.5411 18.8078C27.5411 15.993 24.9642 16.2096 23.0058 19.1326Z" fill="black"/>
<path d="M42.6932 39.4852C39.3948 41.1091 35.7872 42.733 34.7564 43.0578C33.6226 43.3825 32.6949 44.2486 32.6949 44.8982C32.6949 46.1973 36.3025 45.9808 44.0332 44.2486C46.1978 43.7073 45.8886 44.3569 41.7655 48.579C36.7148 53.559 36.0964 55.0747 37.7456 57.7812C38.3641 58.8638 39.8071 59.0803 42.5902 58.6473L46.6101 57.9977L41.044 61.1373C32.901 65.9007 23.0058 69.7981 16.0997 71.0972C12.4921 71.7468 10.1213 72.7211 10.3275 73.3707C11.049 75.6441 16.512 76.2937 22.5935 74.7781C27.7473 73.5872 28.3657 73.5872 27.6442 74.8863C25.8919 78.3507 12.2859 89.6097 6.10139 92.7493C-1.5262 96.7549 -0.701596 98.7036 7.85368 96.7549C14.5536 95.2393 21.0474 90.6923 26.9227 83.2224C33.2103 75.2111 37.8487 71.3137 46.9193 66.7668C53.1039 63.6272 54.4438 62.6529 54.1346 60.7042C53.9285 59.0803 52.8977 58.3225 50.3208 57.8894L46.8163 57.3481L50.527 55.5077C55.3715 53.126 55.3715 51.6103 50.527 51.1773L46.6101 50.8525L52.0731 46.8469C57.8453 42.4082 58.4638 40.7843 55.5777 38.0778C52.8977 35.5878 49.7024 35.9126 42.6932 39.4852Z" fill="black"/>
<path d="M24.9642 45.6561C25.3765 46.7387 26.0981 49.1205 26.6134 50.9609C27.7473 54.9665 32.2826 60.4878 33.7257 59.5135C36.4056 57.7813 33.4164 47.0635 29.8088 45.0066C26.4073 43.1661 24.1396 43.4909 24.9642 45.6561Z" fill="black"/>
<path d="M54.3408 68.7156C54.3408 71.2056 53.4131 72.613 50.1147 75.103C47.847 76.9434 44.3424 78.8921 42.4871 79.5416C38.8794 80.7325 37.1272 83.5473 38.7764 85.2794C39.2917 85.8207 41.044 85.7125 43.2086 84.9547C46.0947 83.8721 47.4347 83.9803 52.5885 86.0373C55.8869 87.3364 62.0714 90.8007 66.2975 93.832C74.2344 99.4616 77.0174 99.8946 77.0174 95.4559C77.0174 90.3677 66.6068 83.439 56.7115 82.0316C52.5885 81.4903 50.3208 79.5416 53.8254 79.5416C55.99 79.5416 62.5868 73.1543 62.5868 70.9891C62.5868 68.3908 59.3915 65.4678 56.6084 65.4678C54.7531 65.4678 54.3408 66.1173 54.3408 68.7156Z" fill="black"/>
<path d="M32.1795 78.8921C29.3965 83.439 26.5103 92.3164 26.5103 96.6468C26.5103 101.627 29.8088 105.524 34.0349 105.524C37.2302 105.524 42.384 101.085 46.6101 94.6981C51.2485 87.6612 49.2901 87.5529 40.5286 94.1568C37.7456 96.322 34.9625 97.8377 34.3441 97.6212C32.4887 96.9716 32.3857 87.3364 34.1379 81.9234C36.0964 76.0773 36.0964 76.2939 34.7564 76.2939C34.241 76.2939 33.0041 77.4847 32.1795 78.8921Z" fill="black"/>
</svg>
