<svg width="512" height="512" viewBox="0 0 512 512" fill="none" xmlns="http://www.w3.org/2000/svg">
<mask id="path-1-inside-1_569_2093" fill="white">
<path d="M220.4 7.60001C218.8 11.8 216.8 15.5 216 15.9C215.2 16.3 202.2 20.2 187.1 24.6L159.8 32.5L141.7 68.7L123.5 105L107 105.2L90.5 105.5L90.2 113.2L89.9 121H111.7H133.5L149.4 89.2L165.3 57.5L172.8 89.9L180.3 122.3L178.1 132.4C165.7 188.7 132.2 237.9 85.1 269.1C75.4 275.5 54.4 286.9 49.3 288.4L47 289.1V205.1V121H61.5H76V113V105H38H0V212.1V319.2L5.5 318.5C13.4 317.6 31.2 312.7 42.6 308.4C90.6 290.5 133.5 257.2 159.3 218C164.1 210.6 166 208.4 165.6 210.5C164.1 218.3 121 478.2 121 479.5C121 480.7 122.5 481 128.5 481C133.8 481 136 481.4 136 482.2C136 482.9 135.1 489.3 134 496.4C132.9 503.5 132 509.9 132 510.6C132 511.8 152.1 512 256 512H380L379.6 509.7C379.3 508.5 378.4 502.5 377.5 496.5C376.6 490.4 375.7 484.5 375.5 483.2C375 481.1 375.2 481 383.1 481H391.2L390.6 478.3C390.3 476.7 380.1 415.9 368 343C355.9 270.1 345.7 209.4 345.4 208C345.1 206.6 347.4 209.5 350.5 214.5C359.4 228.7 366.6 237.6 380 251C410.3 281.4 450.2 304.5 490.2 315C496.2 316.6 503.6 318.2 506.5 318.5L512 319.2V242.1V165H504.5H497L496.8 232.4L496.5 299.7L489 297.6L481.5 295.5L481.2 208.2L481 121H489H497V136V151H504.5H512V128V105H450.2H388.5L370.4 68.7L352.2 32.5L323.2 24.1L294.2 15.7L291.2 8.10001L288.3 0.5L255.8 0.199982L223.3 0L220.4 7.60001ZM274.1 26.2L271.4 37.5L255.8 37.8L240.2 38L238.1 28.9C236.9 23.9 235.7 18.8 235.4 17.4L234.8 15H255.7H276.7L274.1 26.2ZM227 52.2C229.4 62.6 231.1 71.1 230.9 71.3C230.7 71.5 227.7 72.8 224.4 74.2L218.3 76.7L213.5 56.3C210.9 45.1 209.1 35.6 209.5 35.2C209.8 34.8 212.7 33.8 215.8 32.9C219.8 31.8 221.7 31.6 222.1 32.4C222.5 33 224.7 41.9 227 52.2ZM297.3 33.4C301.9 34.7 303 35.4 302.6 36.8C302.3 37.7 300.2 46.6 297.9 56.5C295.7 66.4 293.5 74.8 293.1 75.3C292.7 75.7 289.6 75 286.2 73.8C281 71.9 280 71.2 280.4 69.6C280.7 68.6 282.8 59.4 285.1 49.3C287.7 38.1 289.8 31.1 290.4 31.3C291 31.5 294.1 32.5 297.3 33.4ZM198.6 63L203.9 85.5L197.6 91.8L191.4 98.1L185.1 71.5C181.6 56.8 179.1 44.5 179.5 44.2C180.4 43.2 190.3 40.1 191.9 40.3C193 40.5 194.9 47 198.6 63ZM326 41.9C331.2 43.4 332.5 44.1 332.3 45.6C332.1 47.4 323 86.5 321 94.1L320 97.6L313.9 91.6L307.7 85.6L310.5 73.6C316.1 48.6 318.3 40 318.9 40C319.2 40 322.4 40.8 326 41.9ZM267 55.7C267 56.7 266.4 59.7 265.7 62.5L264.4 67.5L255.8 67.8L247.2 68.1L246 62.8C245.4 59.9 244.6 56.7 244.3 55.7C243.9 54.2 244.9 54 255.4 54C265.8 54 267 54.2 267 55.7ZM421.7 121H465V205.1V289.1L462.8 288.4C458.6 287.1 440.8 277.9 432 272.4C384 242.7 348.9 193.6 334.9 136.5C333.3 129.9 331.9 122.9 331.9 121C331.8 119.1 334.7 105.3 338.3 90.5C341.8 75.6 345.1 61.9 345.5 60C346.2 56.7 347 58 362.4 88.8L378.5 121H421.7ZM276.5 87.4C287.6 91.2 295.3 96.1 303.9 104.9L311.4 112.5L283.7 112.8C268.5 112.9 243.5 112.9 228.3 112.8L200.5 112.5L209 104C218.6 94.4 227.2 89.2 239.2 86C249.9 83.1 265.6 83.7 276.5 87.4ZM31 207.9C31 255.8 30.6 295.1 30.2 295.4C29.7 295.7 26.1 296.8 22.2 297.9L15 299.9V210.4V121H23H31V207.9ZM210.4 161.7C204.6 187.7 203 196.2 203 202.7V211H210.5H218V256V301H226H234V256V211H241.5H249V170V129H256H263V170V211H270.5H278V256V301H286H294V256V211H301.5H309V204C309 199 307 187.9 301.9 165.2C298.1 147.8 294.6 132.5 294.3 131.2C293.8 129 293.9 129 304.9 129C315.6 129 316 129.1 316.5 131.2C317 133.6 372 463.6 372 464.5C372 464.8 362.6 465 351 465H330V473V481H344.4H358.8L359.9 487.3C360.5 490.8 361 494.4 361 495.3C361 496.9 353.3 497 255.4 497H149.8L150.4 494.7C150.7 493.4 151.2 489.8 151.6 486.7L152.3 481H219.1H286V473V465H212.7H139.3L167.3 297L195.3 129H206.5H217.7L210.4 161.7ZM233 165.5V195H226.5C222.9 195 220 194.7 220 194.2C219.9 193.2 232.4 136 232.8 136C232.9 136 233 149.3 233 165.5ZM291.9 194.2C292 194.7 289.1 195 285.5 195H279L279.1 166.2L279.2 137.5L285.5 165.5C289 180.9 291.9 193.8 291.9 194.2Z"/>
<path d="M210.4 161.7C204.6 187.7 203 196.2 203 202.7V211H210.5H218V256V301H226H234V256V211H241.5H249V170V129H256H263V170V211H270.5H278V256V301H286H294V256V211H301.5H309V204C309 199 307 187.9 301.9 165.2C298.1 147.8 294.6 132.5 294.3 131.2C293.8 129 293.9 129 304.9 129C315.6 129 316 129.1 316.5 131.2C317 133.6 372 463.6 372 464.5C372 464.8 362.6 465 351 465H330H286H212.7H139.3L167.3 297L195.3 129H206.5H217.7L210.4 161.7Z"/>
<path d="M89.9 121H111.7H133.5L149.4 89.2L165.3 57.5L172.8 89.9L180.3 122.3L178.1 132.4C165.7 188.7 132.2 237.9 85.1 269.1C75.4 275.5 54.4 286.9 49.3 288.4L47 289.1V205.1V121H61.5H76H89.9Z"/>
<path d="M421.7 121H465V205.1V289.1L462.8 288.4C458.6 287.1 440.8 277.9 432 272.4C384 242.7 348.9 193.6 334.9 136.5C333.3 129.9 331.9 122.9 331.9 121C331.8 119.1 334.7 105.3 338.3 90.5C341.8 75.6 345.1 61.9 345.5 60C346.2 56.7 347 58 362.4 88.8L378.5 121H421.7Z"/>
<path d="M233 165.5V195H226.5C222.9 195 220 194.7 220 194.2C219.9 193.2 232.4 136 232.8 136C232.9 136 233 149.3 233 165.5Z"/>
<path d="M291.9 194.2C292 194.7 289.1 195 285.5 195H279L279.1 166.2L279.2 137.5L285.5 165.5C289 180.9 291.9 193.8 291.9 194.2Z"/>
<path d="M276.5 87.4C287.6 91.2 295.3 96.1 303.9 104.9L311.4 112.5L283.7 112.8C268.5 112.9 243.5 112.9 228.3 112.8L200.5 112.5L209 104C218.6 94.4 227.2 89.2 239.2 86C249.9 83.1 265.6 83.7 276.5 87.4Z"/>
<path d="M297.3 33.4C301.9 34.7 303 35.4 302.6 36.8C302.3 37.7 300.2 46.6 297.9 56.5C295.7 66.4 293.5 74.8 293.1 75.3C292.7 75.7 289.6 75 286.2 73.8C281 71.9 280 71.2 280.4 69.6C280.7 68.6 282.8 59.4 285.1 49.3C287.7 38.1 289.8 31.1 290.4 31.3C291 31.5 294.1 32.5 297.3 33.4Z"/>
<path d="M227 52.2C229.4 62.6 231.1 71.1 230.9 71.3C230.7 71.5 227.7 72.8 224.4 74.2L218.3 76.7L213.5 56.3C210.9 45.1 209.1 35.6 209.5 35.2C209.8 34.8 212.7 33.8 215.8 32.9C219.8 31.8 221.7 31.6 222.1 32.4C222.5 33 224.7 41.9 227 52.2Z"/>
<path d="M326 41.9C331.2 43.4 332.5 44.1 332.3 45.6C332.1 47.4 323 86.5 321 94.1L320 97.6L313.9 91.6L307.7 85.6L310.5 73.6C316.1 48.6 318.3 40 318.9 40C319.2 40 322.4 40.8 326 41.9Z"/>
<path d="M198.6 63L203.9 85.5L197.6 91.8L191.4 98.1L185.1 71.5C181.6 56.8 179.1 44.5 179.5 44.2C180.4 43.2 190.3 40.1 191.9 40.3C193 40.5 194.9 47 198.6 63Z"/>
<path d="M267 55.7C267 56.7 266.4 59.7 265.7 62.5L264.4 67.5L255.8 67.8L247.2 68.1L246 62.8C245.4 59.9 244.6 56.7 244.3 55.7C243.9 54.2 244.9 54 255.4 54C265.8 54 267 54.2 267 55.7Z"/>
</mask>
<path d="M220.4 7.60001C218.8 11.8 216.8 15.5 216 15.9C215.2 16.3 202.2 20.2 187.1 24.6L159.8 32.5L141.7 68.7L123.5 105L107 105.2L90.5 105.5L90.2 113.2L89.9 121H111.7H133.5L149.4 89.2L165.3 57.5L172.8 89.9L180.3 122.3L178.1 132.4C165.7 188.7 132.2 237.9 85.1 269.1C75.4 275.5 54.4 286.9 49.3 288.4L47 289.1V205.1V121H61.5H76V113V105H38H0V212.1V319.2L5.5 318.5C13.4 317.6 31.2 312.7 42.6 308.4C90.6 290.5 133.5 257.2 159.3 218C164.1 210.6 166 208.4 165.6 210.5C164.1 218.3 121 478.2 121 479.5C121 480.7 122.5 481 128.5 481C133.8 481 136 481.4 136 482.2C136 482.9 135.1 489.3 134 496.4C132.9 503.5 132 509.9 132 510.6C132 511.8 152.1 512 256 512H380L379.6 509.7C379.3 508.5 378.4 502.5 377.5 496.5C376.6 490.4 375.7 484.5 375.5 483.2C375 481.1 375.2 481 383.1 481H391.2L390.6 478.3C390.3 476.7 380.1 415.9 368 343C355.9 270.1 345.7 209.4 345.4 208C345.1 206.6 347.4 209.5 350.5 214.5C359.4 228.7 366.6 237.6 380 251C410.3 281.4 450.2 304.5 490.2 315C496.2 316.6 503.6 318.2 506.5 318.5L512 319.2V242.1V165H504.5H497L496.8 232.4L496.5 299.7L489 297.6L481.5 295.5L481.2 208.2L481 121H489H497V136V151H504.5H512V128V105H450.2H388.5L370.4 68.7L352.2 32.5L323.2 24.1L294.2 15.7L291.2 8.10001L288.3 0.5L255.8 0.199982L223.3 0L220.4 7.60001ZM274.1 26.2L271.4 37.5L255.8 37.8L240.2 38L238.1 28.9C236.9 23.9 235.7 18.8 235.4 17.4L234.8 15H255.7H276.7L274.1 26.2ZM227 52.2C229.4 62.6 231.1 71.1 230.9 71.3C230.7 71.5 227.7 72.8 224.4 74.2L218.3 76.7L213.5 56.3C210.9 45.1 209.1 35.6 209.5 35.2C209.8 34.8 212.7 33.8 215.8 32.9C219.8 31.8 221.7 31.6 222.1 32.4C222.5 33 224.7 41.9 227 52.2ZM297.3 33.4C301.9 34.7 303 35.4 302.6 36.8C302.3 37.7 300.2 46.6 297.9 56.5C295.7 66.4 293.5 74.8 293.1 75.3C292.7 75.7 289.6 75 286.2 73.8C281 71.9 280 71.2 280.4 69.6C280.7 68.6 282.8 59.4 285.1 49.3C287.7 38.1 289.8 31.1 290.4 31.3C291 31.5 294.1 32.5 297.3 33.4ZM198.6 63L203.9 85.5L197.6 91.8L191.4 98.1L185.1 71.5C181.6 56.8 179.1 44.5 179.5 44.2C180.4 43.2 190.3 40.1 191.9 40.3C193 40.5 194.9 47 198.6 63ZM326 41.9C331.2 43.4 332.5 44.1 332.3 45.6C332.1 47.4 323 86.5 321 94.1L320 97.6L313.9 91.6L307.7 85.6L310.5 73.6C316.1 48.6 318.3 40 318.9 40C319.2 40 322.4 40.8 326 41.9ZM267 55.7C267 56.7 266.4 59.7 265.7 62.5L264.4 67.5L255.8 67.8L247.2 68.1L246 62.8C245.4 59.9 244.6 56.7 244.3 55.7C243.9 54.2 244.9 54 255.4 54C265.8 54 267 54.2 267 55.7ZM421.7 121H465V205.1V289.1L462.8 288.4C458.6 287.1 440.8 277.9 432 272.4C384 242.7 348.9 193.6 334.9 136.5C333.3 129.9 331.9 122.9 331.9 121C331.8 119.1 334.7 105.3 338.3 90.5C341.8 75.6 345.1 61.9 345.5 60C346.2 56.7 347 58 362.4 88.8L378.5 121H421.7ZM276.5 87.4C287.6 91.2 295.3 96.1 303.9 104.9L311.4 112.5L283.7 112.8C268.5 112.9 243.5 112.9 228.3 112.8L200.5 112.5L209 104C218.6 94.4 227.2 89.2 239.2 86C249.9 83.1 265.6 83.7 276.5 87.4ZM31 207.9C31 255.8 30.6 295.1 30.2 295.4C29.7 295.7 26.1 296.8 22.2 297.9L15 299.9V210.4V121H23H31V207.9ZM210.4 161.7C204.6 187.7 203 196.2 203 202.7V211H210.5H218V256V301H226H234V256V211H241.5H249V170V129H256H263V170V211H270.5H278V256V301H286H294V256V211H301.5H309V204C309 199 307 187.9 301.9 165.2C298.1 147.8 294.6 132.5 294.3 131.2C293.8 129 293.9 129 304.9 129C315.6 129 316 129.1 316.5 131.2C317 133.6 372 463.6 372 464.5C372 464.8 362.6 465 351 465H330V473V481H344.4H358.8L359.9 487.3C360.5 490.8 361 494.4 361 495.3C361 496.9 353.3 497 255.4 497H149.8L150.4 494.7C150.7 493.4 151.2 489.8 151.6 486.7L152.3 481H219.1H286V473V465H212.7H139.3L167.3 297L195.3 129H206.5H217.7L210.4 161.7ZM233 165.5V195H226.5C222.9 195 220 194.7 220 194.2C219.9 193.2 232.4 136 232.8 136C232.9 136 233 149.3 233 165.5ZM291.9 194.2C292 194.7 289.1 195 285.5 195H279L279.1 166.2L279.2 137.5L285.5 165.5C289 180.9 291.9 193.8 291.9 194.2Z" fill="black"/>
<path d="M210.4 161.7C204.6 187.7 203 196.2 203 202.7V211H210.5H218V256V301H226H234V256V211H241.5H249V170V129H256H263V170V211H270.5H278V256V301H286H294V256V211H301.5H309V204C309 199 307 187.9 301.9 165.2C298.1 147.8 294.6 132.5 294.3 131.2C293.8 129 293.9 129 304.9 129C315.6 129 316 129.1 316.5 131.2C317 133.6 372 463.6 372 464.5C372 464.8 362.6 465 351 465H330H286H212.7H139.3L167.3 297L195.3 129H206.5H217.7L210.4 161.7Z" fill="#E04446"/>
<path d="M89.9 121H111.7H133.5L149.4 89.2L165.3 57.5L172.8 89.9L180.3 122.3L178.1 132.4C165.7 188.7 132.2 237.9 85.1 269.1C75.4 275.5 54.4 286.9 49.3 288.4L47 289.1V205.1V121H61.5H76H89.9Z" fill="#E0444D"/>
<path d="M421.7 121H465V205.1V289.1L462.8 288.4C458.6 287.1 440.8 277.9 432 272.4C384 242.7 348.9 193.6 334.9 136.5C333.3 129.9 331.9 122.9 331.9 121C331.8 119.1 334.7 105.3 338.3 90.5C341.8 75.6 345.1 61.9 345.5 60C346.2 56.7 347 58 362.4 88.8L378.5 121H421.7Z" fill="#E04446"/>
<path d="M233 165.5V195H226.5C222.9 195 220 194.7 220 194.2C219.9 193.2 232.4 136 232.8 136C232.9 136 233 149.3 233 165.5Z" fill="#FAB53F"/>
<path d="M291.9 194.2C292 194.7 289.1 195 285.5 195H279L279.1 166.2L279.2 137.5L285.5 165.5C289 180.9 291.9 193.8 291.9 194.2Z" fill="#FAB53F"/>
<path d="M276.5 87.4C287.6 91.2 295.3 96.1 303.9 104.9L311.4 112.5L283.7 112.8C268.5 112.9 243.5 112.9 228.3 112.8L200.5 112.5L209 104C218.6 94.4 227.2 89.2 239.2 86C249.9 83.1 265.6 83.7 276.5 87.4Z" fill="#FAB53F"/>
<path d="M297.3 33.4C301.9 34.7 303 35.4 302.6 36.8C302.3 37.7 300.2 46.6 297.9 56.5C295.7 66.4 293.5 74.8 293.1 75.3C292.7 75.7 289.6 75 286.2 73.8C281 71.9 280 71.2 280.4 69.6C280.7 68.6 282.8 59.4 285.1 49.3C287.7 38.1 289.8 31.1 290.4 31.3C291 31.5 294.1 32.5 297.3 33.4Z" fill="#FAB53F"/>
<path d="M227 52.2C229.4 62.6 231.1 71.1 230.9 71.3C230.7 71.5 227.7 72.8 224.4 74.2L218.3 76.7L213.5 56.3C210.9 45.1 209.1 35.6 209.5 35.2C209.8 34.8 212.7 33.8 215.8 32.9C219.8 31.8 221.7 31.6 222.1 32.4C222.5 33 224.7 41.9 227 52.2Z" fill="#FAB53F"/>
<path d="M326 41.9C331.2 43.4 332.5 44.1 332.3 45.6C332.1 47.4 323 86.5 321 94.1L320 97.6L313.9 91.6L307.7 85.6L310.5 73.6C316.1 48.6 318.3 40 318.9 40C319.2 40 322.4 40.8 326 41.9Z" fill="#A83C3D"/>
<path d="M198.6 63L203.9 85.5L197.6 91.8L191.4 98.1L185.1 71.5C181.6 56.8 179.1 44.5 179.5 44.2C180.4 43.2 190.3 40.1 191.9 40.3C193 40.5 194.9 47 198.6 63Z" fill="#A83C3D"/>
<path d="M267 55.7C267 56.7 266.4 59.7 265.7 62.5L264.4 67.5L255.8 67.8L247.2 68.1L246 62.8C245.4 59.9 244.6 56.7 244.3 55.7C243.9 54.2 244.9 54 255.4 54C265.8 54 267 54.2 267 55.7Z" fill="#A83C3D"/>
<path d="M133.5 121L133.947 121.224L133.809 121.5H133.5V121ZM149.4 89.2L148.953 88.9764L148.953 88.9758L149.4 89.2ZM165.3 57.5L164.853 57.2758L165.475 56.0368L165.787 57.3872L165.3 57.5ZM180.3 122.3L180.787 122.187L180.812 122.297L180.789 122.406L180.3 122.3ZM178.1 132.4L178.589 132.506L178.588 132.508L178.1 132.4ZM85.1 269.1L85.3761 269.517L85.3754 269.517L85.1 269.1ZM49.3 288.4L49.1544 287.922L49.1589 287.92L49.3 288.4ZM47 289.1L47.1456 289.578L46.5 289.775V289.1H47ZM47 121H46.5V120.5H47V121ZM227 52.2L226.513 52.3124L226.512 52.3089L227 52.2ZM224.4 74.2L224.595 74.6603L224.59 74.6626L224.4 74.2ZM218.3 76.7L218.49 77.1626L217.947 77.3848L217.813 76.8145L218.3 76.7ZM213.5 56.3L213.013 56.4145L213.013 56.4131L213.5 56.3ZM209.5 35.2L209.9 35.5L209.879 35.5284L209.854 35.5535L209.5 35.2ZM215.8 32.9L215.661 32.4198L215.667 32.4179L215.8 32.9ZM222.1 32.4L221.684 32.6773L221.667 32.6514L221.653 32.6236L222.1 32.4ZM297.3 33.4L297.435 32.9187L297.436 32.9188L297.3 33.4ZM302.6 36.8L303.081 36.9373L303.078 36.9478L303.074 36.9581L302.6 36.8ZM297.9 56.5L297.412 56.3915L297.413 56.3869L297.9 56.5ZM293.1 75.3L293.49 75.6123L293.473 75.634L293.454 75.6535L293.1 75.3ZM286.2 73.8L286.034 74.2715L286.028 74.2696L286.2 73.8ZM280.4 69.6L279.915 69.4787L279.918 69.4675L279.921 69.4563L280.4 69.6ZM285.1 49.3L284.612 49.189L284.613 49.1869L285.1 49.3ZM198.6 63L198.113 63.1146L198.113 63.1127L198.6 63ZM203.9 85.5L204.387 85.3854L204.451 85.6565L204.254 85.8536L203.9 85.5ZM197.6 91.8L197.244 91.4493L197.246 91.4464L197.6 91.8ZM191.4 98.1L191.756 98.4507L191.122 99.0954L190.913 98.2152L191.4 98.1ZM185.1 71.5L185.586 71.3842L185.587 71.3848L185.1 71.5ZM179.5 44.2L179.872 44.5345L179.839 44.5707L179.8 44.6L179.5 44.2ZM191.9 40.3L191.962 39.8038L191.976 39.8056L191.989 39.8081L191.9 40.3ZM326 41.9L325.861 42.3805L325.854 42.3782L326 41.9ZM332.3 45.6L331.803 45.5448L331.804 45.5339L332.3 45.6ZM321 94.1L321.484 94.2273L321.481 94.2374L321 94.1ZM320 97.6L320.481 97.7374L320.25 98.5468L319.649 97.9565L320 97.6ZM313.9 91.6L314.248 91.2407L314.251 91.2435L313.9 91.6ZM307.7 85.6L307.352 85.9593L307.149 85.7623L307.213 85.4864L307.7 85.6ZM310.5 73.6L310.988 73.7093L310.987 73.7136L310.5 73.6ZM265.7 62.5L266.185 62.6213L266.184 62.6258L265.7 62.5ZM264.4 67.5L264.884 67.6258L264.79 67.9867L264.417 67.9997L264.4 67.5ZM255.8 67.8L255.783 67.3003L255.783 67.3003L255.8 67.8ZM247.2 68.1L247.217 68.5997L246.804 68.6141L246.712 68.2104L247.2 68.1ZM246 62.8L245.512 62.9104L245.51 62.9013L246 62.8ZM244.3 55.7L243.821 55.8437L243.819 55.8363L243.817 55.8288L244.3 55.7ZM465 121V120.5H465.5V121H465ZM465 289.1H465.5V289.784L464.848 289.576L465 289.1ZM462.8 288.4L462.948 287.922L462.952 287.924L462.8 288.4ZM432 272.4L432.263 271.975L432.265 271.976L432 272.4ZM334.9 136.5L334.414 136.619L334.414 136.618L334.9 136.5ZM331.9 121L332.399 120.974L332.4 120.987V121H331.9ZM338.3 90.5L338.787 90.6143L338.786 90.6182L338.3 90.5ZM345.5 60L345.011 59.897L345.011 59.8962L345.5 60ZM378.5 121V121.5H378.191L378.053 121.224L378.5 121ZM276.5 87.4L276.661 86.9265L276.662 86.9269L276.5 87.4ZM303.9 104.9L303.544 105.251L303.542 105.249L303.9 104.9ZM311.4 112.5L311.756 112.149L312.583 112.987L311.405 113L311.4 112.5ZM283.7 112.8L283.705 113.3L283.703 113.3L283.7 112.8ZM228.3 112.8L228.297 113.3L228.295 113.3L228.3 112.8ZM200.5 112.5L200.495 113L199.306 112.987L200.146 112.146L200.5 112.5ZM239.2 86L239.331 86.4826L239.329 86.4831L239.2 86ZM210.4 161.7L209.912 161.591L209.912 161.591L210.4 161.7ZM203 211V211.5H202.5V211H203ZM218 211V210.5H218.5V211H218ZM218 301V301.5H217.5V301H218ZM234 301H234.5V301.5H234V301ZM234 211H233.5V210.5H234V211ZM249 211H249.5V211.5H249V211ZM249 129H248.5V128.5H249V129ZM263 129V128.5H263.5V129H263ZM263 211V211.5H262.5V211H263ZM278 211V210.5H278.5V211H278ZM278 301V301.5H277.5V301H278ZM294 301H294.5V301.5H294V301ZM294 211H293.5V210.5H294V211ZM309 211H309.5V211.5H309V211ZM301.9 165.2L301.412 165.31L301.412 165.307L301.9 165.2ZM294.3 131.2L293.813 131.312L293.812 131.311L294.3 131.2ZM316.5 131.2L316.986 131.084L316.988 131.091L316.989 131.098L316.5 131.2ZM139.3 465V465.5H138.71L138.807 464.918L139.3 465ZM195.3 129L194.807 128.918L194.876 128.5H195.3V129ZM217.7 129V128.5H218.324L218.188 129.109L217.7 129ZM233 195H233.5V195.5H233V195ZM220 194.2L220.498 194.15L220.5 194.175V194.2H220ZM291.9 194.2L291.41 194.298L291.4 194.249V194.2H291.9ZM279 195V195.5H278.498L278.5 194.998L279 195ZM279.1 166.2L278.6 166.198L278.6 166.198L279.1 166.2ZM279.2 137.5L278.7 137.498L279.688 137.39L279.2 137.5ZM285.5 165.5L285.012 165.611L285.012 165.61L285.5 165.5ZM89.9 120.5H111.7V121.5H89.9V120.5ZM111.7 120.5H133.5V121.5H111.7V120.5ZM133.053 120.776L148.953 88.9764L149.847 89.4236L133.947 121.224L133.053 120.776ZM148.953 88.9758L164.853 57.2758L165.747 57.7242L149.847 89.4242L148.953 88.9758ZM165.787 57.3872L173.287 89.7872L172.313 90.0128L164.813 57.6128L165.787 57.3872ZM173.287 89.7872L180.787 122.187L179.813 122.413L172.313 90.0128L173.287 89.7872ZM180.789 122.406L178.589 132.506L177.611 132.294L179.811 122.194L180.789 122.406ZM178.588 132.508C166.161 188.932 132.587 238.244 85.3761 269.517L84.8239 268.683C131.813 237.556 165.239 188.468 177.612 132.292L178.588 132.508ZM85.3754 269.517C80.5078 272.729 72.8184 277.187 65.7127 281.027C62.1586 282.948 58.7457 284.717 55.8999 286.101C53.0664 287.479 50.7619 288.491 49.4411 288.88L49.1589 287.92C50.3881 287.559 52.6211 286.584 55.4626 285.202C58.2918 283.826 61.6914 282.064 65.2373 280.148C72.3316 276.313 79.9922 271.871 84.8246 268.683L85.3754 269.517ZM49.4456 288.878L47.1456 289.578L46.8544 288.622L49.1544 287.922L49.4456 288.878ZM46.5 289.1V205.1H47.5V289.1H46.5ZM46.5 205.1V121H47.5V205.1H46.5ZM47 120.5H61.5V121.5H47V120.5ZM61.5 120.5H76V121.5H61.5V120.5ZM227.487 52.0876C228.688 57.2909 229.714 62.0204 230.415 65.4756C230.765 67.2025 231.035 68.6146 231.205 69.6095C231.29 70.1058 231.351 70.505 231.385 70.7899C231.401 70.9307 231.413 71.0549 231.415 71.1533C231.417 71.2008 231.416 71.258 231.41 71.3146C231.407 71.3425 231.4 71.3846 231.386 71.4317C231.374 71.4689 231.342 71.5655 231.254 71.6535L230.546 70.9464C230.465 71.0282 230.437 71.1145 230.43 71.1375C230.42 71.1702 230.417 71.194 230.417 71.1997C230.415 71.2117 230.416 71.2086 230.416 71.1803C230.414 71.1271 230.407 71.0381 230.392 70.9069C230.361 70.6481 230.304 70.2692 230.22 69.778C230.052 68.7979 229.785 67.3975 229.435 65.6744C228.736 62.2296 227.712 57.509 226.513 52.3124L227.487 52.0876ZM231.254 71.6535C231.196 71.711 231.128 71.7538 231.093 71.7756C231.047 71.8041 230.992 71.8346 230.934 71.8657C230.817 71.9284 230.662 72.0048 230.479 72.092C230.112 72.267 229.61 72.4942 229.015 72.7573C227.824 73.2839 226.246 73.9601 224.595 74.6603L224.205 73.7397C225.854 73.0399 227.426 72.3661 228.61 71.8427C229.203 71.5808 229.695 71.358 230.049 71.1892C230.227 71.1045 230.366 71.0356 230.463 70.9835C230.512 70.9572 230.546 70.9378 230.568 70.9247C230.6 70.9048 230.579 70.914 230.546 70.9464L231.254 71.6535ZM224.59 74.6626L218.49 77.1626L218.11 76.2373L224.21 73.7373L224.59 74.6626ZM217.813 76.8145L213.013 56.4145L213.987 56.1855L218.787 76.5855L217.813 76.8145ZM213.013 56.4131C211.712 50.8084 210.61 45.6265 209.884 41.7931C209.521 39.8775 209.25 38.2927 209.095 37.1582C209.018 36.5927 208.968 36.1284 208.951 35.7871C208.943 35.6182 208.941 35.4642 208.952 35.3367C208.958 35.2736 208.967 35.202 208.987 35.1316C209.002 35.0743 209.041 34.9514 209.146 34.8464L209.854 35.5535C209.898 35.5094 209.921 35.4669 209.933 35.4439C209.944 35.4197 209.949 35.402 209.951 35.3962C209.954 35.386 209.951 35.3917 209.949 35.4229C209.943 35.484 209.942 35.586 209.95 35.7371C209.965 36.0356 210.01 36.4667 210.086 37.023C210.237 38.1322 210.504 39.6975 210.866 41.6069C211.59 45.4235 212.688 50.5916 213.987 56.1869L213.013 56.4131ZM209.1 34.9C209.202 34.7639 209.358 34.6623 209.475 34.5927C209.611 34.5125 209.779 34.4286 209.969 34.3429C210.349 34.1708 210.851 33.975 211.431 33.7668C212.594 33.3497 214.105 32.8716 215.661 32.4198L215.939 33.3802C214.395 33.8284 212.906 34.3003 211.769 34.7081C211.199 34.9124 210.726 35.0979 210.381 35.2539C210.208 35.3323 210.076 35.3992 209.984 35.4537C209.874 35.5189 209.873 35.5361 209.9 35.5L209.1 34.9ZM215.667 32.4179C217.67 31.8673 219.183 31.531 220.257 31.4393C220.793 31.3936 221.258 31.4047 221.634 31.5018C222.02 31.6013 222.362 31.8064 222.547 32.1764L221.653 32.6236C221.638 32.5936 221.592 32.5237 221.385 32.4701C221.167 32.4141 220.832 32.3939 220.343 32.4357C219.367 32.519 217.93 32.8327 215.933 33.3821L215.667 32.4179ZM222.516 32.1226C222.575 32.2114 222.624 32.3291 222.662 32.4289C222.706 32.5418 222.754 32.6831 222.807 32.8479C222.913 33.1782 223.043 33.6228 223.193 34.1652C223.493 35.2512 223.879 36.7469 224.323 38.5424C225.211 42.1345 226.337 46.9383 227.488 52.091L226.512 52.3089C225.363 47.1617 224.239 42.3655 223.352 38.7826C222.909 36.9906 222.526 35.505 222.229 34.4316C222.081 33.8944 221.955 33.4648 221.855 33.1533C221.805 32.9972 221.763 32.8756 221.729 32.7873C221.69 32.6858 221.675 32.6635 221.684 32.6773L222.516 32.1226ZM297.436 32.9188C299.723 33.5653 301.222 34.0823 302.095 34.6415C302.541 34.9271 302.876 35.2556 303.049 35.6674C303.225 36.0878 303.201 36.518 303.081 36.9373L302.119 36.6626C302.199 36.382 302.187 36.1997 302.126 36.0545C302.062 35.9006 301.909 35.7104 301.555 35.4835C300.828 35.0177 299.477 34.5347 297.164 33.8811L297.436 32.9188ZM303.074 36.9581C302.934 37.3806 302.341 39.7972 301.486 43.3907C300.637 46.9644 299.537 51.6635 298.387 56.6131L297.413 56.3869C298.563 51.4365 299.663 46.7356 300.514 43.1593C301.359 39.6028 301.967 37.1193 302.126 36.6419L303.074 36.9581ZM298.388 56.6085C297.287 61.5631 296.186 66.1436 295.309 69.5496C294.871 71.2521 294.488 72.6644 294.189 73.6844C294.04 74.1938 293.91 74.6103 293.803 74.9182C293.75 75.0716 293.701 75.204 293.656 75.3098C293.619 75.3983 293.564 75.5206 293.49 75.6123L292.71 74.9876C292.686 75.0169 292.695 75.0149 292.735 74.9206C292.768 74.8437 292.809 74.7346 292.858 74.5912C292.957 74.3053 293.082 73.9062 293.23 73.4031C293.524 72.3981 293.904 70.9979 294.341 69.3004C295.214 65.9064 296.313 61.3369 297.412 56.3915L298.388 56.6085ZM293.454 75.6535C293.28 75.8269 293.044 75.8758 292.892 75.8955C292.716 75.9183 292.512 75.9171 292.296 75.9019C291.861 75.8713 291.303 75.7781 290.668 75.6383C289.393 75.3578 287.747 74.8763 286.034 74.2715L286.366 73.3285C288.053 73.9237 289.658 74.3922 290.882 74.6617C291.497 74.7969 292.001 74.8787 292.366 74.9043C292.55 74.9173 292.681 74.9145 292.764 74.9037C292.872 74.8898 292.82 74.8731 292.746 74.9464L293.454 75.6535ZM286.028 74.2696C283.446 73.3261 281.825 72.6539 280.908 71.9932C280.437 71.6542 280.103 71.285 279.937 70.8379C279.771 70.3879 279.802 69.9324 279.915 69.4787L280.885 69.7213C280.798 70.0676 280.804 70.2996 280.875 70.4903C280.947 70.6838 281.113 70.9083 281.492 71.1818C282.275 71.7461 283.754 72.3739 286.372 73.3304L286.028 74.2696ZM279.921 69.4563C280.215 68.4778 282.308 59.3076 284.612 49.189L285.588 49.411C283.292 59.4924 281.185 68.7222 280.879 69.7437L279.921 69.4563ZM284.613 49.1869C285.914 43.5821 287.092 39.0214 288.021 35.8831C288.484 34.3162 288.89 33.0922 289.22 32.2671C289.384 31.8585 289.538 31.5255 289.681 31.2939C289.751 31.1817 289.836 31.0621 289.94 30.9705C290.03 30.8915 290.261 30.7266 290.558 30.8256L290.242 31.7743C290.347 31.8092 290.442 31.7963 290.507 31.7732C290.565 31.7527 290.596 31.7256 290.6 31.7218C290.606 31.7162 290.583 31.7374 290.532 31.8194C290.435 31.976 290.307 32.2446 290.148 32.6391C289.835 33.4203 289.441 34.6088 288.979 36.1669C288.058 39.2786 286.886 43.8179 285.587 49.4131L284.613 49.1869ZM290.558 30.8256C291.152 31.0237 294.245 32.0213 297.435 32.9187L297.165 33.8813C293.955 32.9787 290.848 31.9762 290.242 31.7743L290.558 30.8256ZM199.087 62.8854L204.387 85.3854L203.413 85.6146L198.113 63.1146L199.087 62.8854ZM204.254 85.8536L197.954 92.1535L197.246 91.4464L203.546 85.1464L204.254 85.8536ZM197.956 92.1507L191.756 98.4507L191.044 97.7493L197.244 91.4493L197.956 92.1507ZM190.913 98.2152L184.613 71.6152L185.587 71.3848L191.887 97.9848L190.913 98.2152ZM184.614 71.6158C182.863 64.262 181.361 57.5066 180.348 52.5502C179.841 50.0728 179.455 48.0403 179.221 46.6056C179.104 45.8898 179.023 45.3139 178.984 44.9029C178.965 44.6996 178.955 44.5217 178.959 44.3818C178.96 44.3136 178.966 44.235 178.982 44.1593C178.99 44.1212 179.004 44.0691 179.029 44.0136C179.053 43.9618 179.103 43.873 179.2 43.8L179.8 44.6C179.885 44.5363 179.923 44.4628 179.938 44.432C179.953 44.3975 179.959 44.3722 179.96 44.3667C179.962 44.356 179.959 44.3652 179.958 44.4073C179.956 44.4876 179.962 44.6191 179.98 44.8096C180.015 45.186 180.092 45.7352 180.208 46.4444C180.439 47.8597 180.822 49.8771 181.327 52.3498C182.339 57.2934 183.837 64.038 185.586 71.3842L184.614 71.6158ZM179.128 43.8655C179.23 43.7521 179.367 43.6525 179.502 43.5669C179.644 43.4772 179.813 43.3844 180.002 43.2899C180.38 43.1008 180.861 42.8925 181.408 42.6758C182.502 42.2418 183.886 41.7628 185.288 41.3229C186.689 40.883 188.117 40.4795 189.298 40.198C189.888 40.0573 190.423 39.9456 190.866 39.8753C191.292 39.8077 191.685 39.7692 191.962 39.8038L191.838 40.7961C191.715 40.7808 191.448 40.7954 191.023 40.8629C190.615 40.9278 190.107 41.0333 189.53 41.1707C188.377 41.4454 186.973 41.842 185.587 42.277C184.201 42.7122 182.841 43.1831 181.776 43.6054C181.243 43.8168 180.791 44.0132 180.449 44.1843C180.278 44.2699 180.141 44.346 180.038 44.4114C179.928 44.4811 179.882 44.5228 179.872 44.5345L179.128 43.8655ZM191.989 39.8081C192.331 39.8702 192.581 40.139 192.758 40.3842C192.952 40.6536 193.147 41.0228 193.348 41.4798C193.752 42.3975 194.216 43.7535 194.755 45.5837C195.834 49.2493 197.237 54.887 199.087 62.8873L198.113 63.1127C196.263 55.113 194.866 49.5007 193.795 45.8663C193.259 44.0464 192.81 42.74 192.433 41.8827C192.244 41.4521 192.081 41.1558 191.946 40.9689C191.794 40.7578 191.744 40.7798 191.811 40.7919L191.989 39.8081ZM326.139 41.4196C328.726 42.166 330.413 42.7311 331.426 43.3173C331.939 43.6144 332.327 43.9433 332.563 44.3481C332.807 44.7663 332.857 45.2095 332.796 45.6661L331.804 45.5339C331.844 45.2405 331.805 45.0337 331.699 44.8519C331.585 44.6567 331.361 44.4356 330.924 44.1827C330.037 43.6689 328.474 43.134 325.861 42.3804L326.139 41.4196ZM332.797 45.6552C332.768 45.9129 332.596 46.755 332.328 47.9948C332.055 49.2533 331.675 50.9597 331.219 52.979C330.306 57.0179 329.087 62.3128 327.812 67.7884C325.263 78.7358 322.486 90.4188 321.484 94.2273L320.516 93.9728C321.514 90.1812 324.287 78.5142 326.838 67.5616C328.113 62.0872 329.331 56.7946 330.244 52.7585C330.7 50.7403 331.079 49.0374 331.35 47.7833C331.626 46.5106 331.782 45.7371 331.803 45.5448L332.797 45.6552ZM321.481 94.2374L320.481 97.7374L319.519 97.4626L320.519 93.9626L321.481 94.2374ZM319.649 97.9565L313.549 91.9565L314.251 91.2435L320.351 97.2435L319.649 97.9565ZM313.552 91.9593L307.352 85.9593L308.048 85.2407L314.248 91.2407L313.552 91.9593ZM307.213 85.4864L310.013 73.4864L310.987 73.7136L308.187 85.7136L307.213 85.4864ZM310.012 73.4907C312.812 60.9906 314.763 52.585 316.09 47.3032C316.753 44.6639 317.262 42.7956 317.645 41.5838C317.836 40.9805 318 40.524 318.141 40.2122C318.21 40.0591 318.284 39.9181 318.364 39.8079C318.404 39.753 318.46 39.687 318.532 39.6306C318.603 39.5757 318.729 39.5 318.9 39.5V40.5C319.033 40.5 319.119 40.4411 319.146 40.4203C319.175 40.3979 319.183 40.3832 319.172 40.3975C319.152 40.4254 319.111 40.4936 319.052 40.6245C318.936 40.8807 318.786 41.2914 318.599 41.885C318.225 43.0669 317.722 44.9111 317.06 47.5468C315.737 52.815 313.788 61.2095 310.988 73.7093L310.012 73.4907ZM318.9 39.5C318.995 39.5 319.129 39.5242 319.239 39.5458C319.37 39.5714 319.54 39.6083 319.742 39.6551C320.147 39.7487 320.693 39.8843 321.339 40.0538C322.633 40.393 324.339 40.8698 326.146 41.4218L325.854 42.3782C324.061 41.8302 322.367 41.357 321.086 41.0212C320.445 40.8532 319.909 40.7201 319.517 40.6293C319.32 40.5839 319.163 40.5497 319.048 40.5273C318.912 40.5008 318.88 40.5 318.9 40.5V39.5ZM267.5 55.7C267.5 56.2559 267.339 57.3028 267.103 58.5202C266.864 59.7552 266.537 61.214 266.185 62.6213L265.215 62.3787C265.563 60.986 265.886 59.5448 266.122 58.3298C266.361 57.0972 266.5 56.1441 266.5 55.7H267.5ZM266.184 62.6258L264.884 67.6258L263.916 67.3742L265.216 62.3742L266.184 62.6258ZM264.417 67.9997L255.817 68.2997L255.783 67.3003L264.383 67.0003L264.417 67.9997ZM255.817 68.2997L247.217 68.5997L247.183 67.6003L255.783 67.3003L255.817 68.2997ZM246.712 68.2104L245.512 62.9104L246.488 62.6896L247.688 67.9896L246.712 68.2104ZM245.51 62.9013C244.912 60.0086 244.115 56.8242 243.821 55.8437L244.779 55.5563C245.085 56.5757 245.888 59.7914 246.49 62.6987L245.51 62.9013ZM243.817 55.8288C243.711 55.4318 243.632 54.906 244.013 54.4718C244.187 54.2739 244.423 54.1372 244.69 54.0355C244.959 53.9335 245.289 53.8557 245.685 53.7935C247.246 53.5485 250.169 53.5 255.4 53.5V54.5C250.131 54.5 247.304 54.5515 245.84 54.7814C245.479 54.8381 245.224 54.9025 245.045 54.9703C244.866 55.0386 244.793 55.0995 244.765 55.1313C244.743 55.1565 244.689 55.2182 244.783 55.5712L243.817 55.8288ZM255.4 53.5C260.583 53.5 263.528 53.5487 265.173 53.7929C265.986 53.9135 266.582 54.0933 266.971 54.4178C267.407 54.7827 267.5 55.2537 267.5 55.7H266.5C266.5 55.3962 266.443 55.2798 266.329 55.1853C266.168 55.0504 265.814 54.899 265.027 54.7821C263.472 54.5513 260.617 54.5 255.4 54.5V53.5ZM421.7 120.5H465V121.5H421.7V120.5ZM465.5 121V205.1H464.5V121H465.5ZM465.5 205.1V289.1H464.5V205.1H465.5ZM464.848 289.576L462.648 288.876L462.952 287.924L465.152 288.624L464.848 289.576ZM462.652 288.878C460.5 288.212 454.957 285.562 448.895 282.419C442.815 279.266 436.151 275.584 431.735 272.824L432.265 271.976C436.649 274.716 443.285 278.384 449.355 281.531C455.443 284.688 460.9 287.288 462.948 287.922L462.652 288.878ZM431.737 272.825C383.621 243.053 348.444 193.841 334.414 136.619L335.386 136.381C349.356 193.359 384.379 242.347 432.263 271.975L431.737 272.825ZM334.414 136.618C333.613 133.312 332.861 129.904 332.309 127.083C331.762 124.285 331.4 122.008 331.4 121H332.4C332.4 121.892 332.738 124.065 333.291 126.892C333.839 129.696 334.587 133.088 335.386 136.382L334.414 136.618ZM331.401 121.026C331.385 120.737 331.426 120.271 331.503 119.686C331.581 119.088 331.701 118.327 331.859 117.428C332.174 115.628 332.641 113.256 333.223 110.485C334.387 104.941 336.013 97.786 337.814 90.3818L338.786 90.6182C336.987 98.0141 335.363 105.159 334.202 110.69C333.621 113.456 333.157 115.816 332.844 117.6C332.688 118.493 332.57 119.238 332.494 119.816C332.417 120.407 332.39 120.788 332.399 120.974L331.401 121.026ZM337.813 90.3857C341.316 75.4747 344.612 61.7896 345.011 59.897L345.989 60.103C345.588 62.0104 342.284 75.7253 338.787 90.6143L337.813 90.3857ZM345.011 59.8962C345.097 59.4918 345.197 59.0818 345.356 58.7891C345.437 58.6394 345.56 58.4664 345.755 58.357C345.973 58.2348 346.211 58.2293 346.429 58.3026C346.628 58.3692 346.807 58.4985 346.967 58.646C347.131 58.7976 347.305 58.9953 347.49 59.236C347.861 59.7173 348.312 60.4127 348.869 61.359C351.092 65.1404 355.152 73.1864 362.847 88.5764L361.953 89.0236C354.248 73.6135 350.208 65.6096 348.006 61.8659C347.457 60.931 347.031 60.278 346.698 59.8464C346.532 59.6307 346.397 59.4808 346.289 59.3816C346.177 59.2782 346.12 59.2534 346.111 59.2505C346.111 59.2505 346.128 59.2563 346.159 59.2543C346.191 59.2521 346.221 59.2423 346.244 59.2291C346.284 59.2071 346.273 59.194 346.235 59.2645C346.156 59.4119 346.078 59.6832 345.989 60.1038L345.011 59.8962ZM362.847 88.5764L378.947 120.776L378.053 121.224L361.953 89.0236L362.847 88.5764ZM378.5 120.5H421.7V121.5H378.5V120.5ZM276.662 86.9269C287.839 90.7533 295.605 95.6969 304.258 104.551L303.542 105.249C294.995 96.5031 287.361 91.6467 276.338 87.873L276.662 86.9269ZM304.256 104.549L311.756 112.149L311.044 112.851L303.544 105.251L304.256 104.549ZM311.405 113L283.705 113.3L283.695 112.3L311.395 112L311.405 113ZM283.703 113.3C268.501 113.4 243.499 113.4 228.297 113.3L228.303 112.3C243.501 112.4 268.499 112.4 283.697 112.3L283.703 113.3ZM228.295 113.3L200.495 113L200.505 112L228.305 112.3L228.295 113.3ZM200.146 112.146L208.646 103.646L209.354 104.354L200.854 112.854L200.146 112.146ZM208.646 103.646C218.301 93.9922 226.976 88.7423 239.071 85.5169L239.329 86.4831C227.424 89.6577 218.899 94.8078 209.354 104.354L208.646 103.646ZM239.069 85.5174C249.869 82.5903 265.671 83.196 276.661 86.9265L276.339 87.8735C265.529 84.2039 249.931 83.6097 239.331 86.4826L239.069 85.5174ZM210.888 161.809C205.083 187.834 203.5 196.269 203.5 202.7H202.5C202.5 196.131 204.118 187.566 209.912 161.591L210.888 161.809ZM203.5 202.7V211H202.5V202.7H203.5ZM203 210.5H210.5V211.5H203V210.5ZM210.5 210.5H218V211.5H210.5V210.5ZM218.5 211V256H217.5V211H218.5ZM218.5 256V301H217.5V256H218.5ZM218 300.5H226V301.5H218V300.5ZM226 300.5H234V301.5H226V300.5ZM233.5 301V256H234.5V301H233.5ZM233.5 256V211H234.5V256H233.5ZM234 210.5H241.5V211.5H234V210.5ZM241.5 210.5H249V211.5H241.5V210.5ZM248.5 211V170H249.5V211H248.5ZM248.5 170V129H249.5V170H248.5ZM249 128.5H256V129.5H249V128.5ZM256 128.5H263V129.5H256V128.5ZM263.5 129V170H262.5V129H263.5ZM263.5 170V211H262.5V170H263.5ZM263 210.5H270.5V211.5H263V210.5ZM270.5 210.5H278V211.5H270.5V210.5ZM278.5 211V256H277.5V211H278.5ZM278.5 256V301H277.5V256H278.5ZM278 300.5H286V301.5H278V300.5ZM286 300.5H294V301.5H286V300.5ZM293.5 301V256H294.5V301H293.5ZM293.5 256V211H294.5V256H293.5ZM294 210.5H301.5V211.5H294V210.5ZM301.5 210.5H309V211.5H301.5V210.5ZM308.5 211V204H309.5V211H308.5ZM308.5 204C308.5 201.55 308.008 197.564 306.871 191.327C305.735 185.1 303.962 176.658 301.412 165.31L302.388 165.09C304.938 176.442 306.715 184.9 307.854 191.148C308.992 197.386 309.5 201.45 309.5 204H308.5ZM301.412 165.307C297.612 147.909 294.112 132.611 293.813 131.312L294.787 131.088C295.088 132.389 298.588 147.691 302.388 165.093L301.412 165.307ZM293.812 131.311C293.751 131.041 293.691 130.773 293.664 130.53C293.637 130.286 293.635 130.018 293.728 129.759C293.934 129.186 294.487 128.929 295.187 128.785C295.906 128.637 296.976 128.569 298.522 128.534C300.077 128.5 302.152 128.5 304.9 128.5V129.5C302.148 129.5 300.085 129.5 298.544 129.534C296.993 129.569 296.007 129.638 295.388 129.765C294.751 129.896 294.685 130.052 294.669 130.097C294.651 130.148 294.638 130.24 294.658 130.418C294.678 130.596 294.724 130.809 294.788 131.089L293.812 131.311ZM304.9 128.5C310.22 128.5 313.06 128.523 314.619 128.821C315.412 128.973 315.971 129.212 316.352 129.635C316.724 130.047 316.863 130.568 316.986 131.084L316.014 131.316C315.887 130.782 315.789 130.503 315.61 130.305C315.442 130.119 315.138 129.939 314.431 129.804C312.99 129.527 310.28 129.5 304.9 129.5V128.5ZM316.989 131.098C317.242 132.311 331.12 215.431 344.931 298.33C351.837 339.787 358.728 381.196 363.892 412.298C366.474 427.849 368.624 440.823 370.129 449.937C370.882 454.494 371.473 458.087 371.876 460.554C372.077 461.788 372.232 462.741 372.336 463.393C372.388 463.718 372.428 463.97 372.454 464.143C372.468 464.23 372.478 464.299 372.485 464.349C372.489 464.373 372.491 464.395 372.494 464.413C372.494 464.416 372.5 464.459 372.5 464.5H371.5C371.5 464.534 371.504 464.56 371.501 464.536C371.5 464.527 371.498 464.512 371.495 464.489C371.489 464.445 371.479 464.381 371.466 464.295C371.44 464.124 371.4 463.876 371.348 463.55C371.245 462.9 371.09 461.949 370.889 460.716C370.486 458.249 369.895 454.657 369.142 450.1C367.638 440.986 365.487 428.012 362.905 412.462C357.741 381.36 350.851 339.951 343.944 298.495C330.13 215.569 316.258 132.489 316.011 131.302L316.989 131.098ZM372.5 464.5C372.5 464.681 372.409 464.804 372.35 464.865C372.292 464.924 372.232 464.957 372.198 464.974C372.13 465.008 372.06 465.028 372.013 465.04C371.911 465.066 371.779 465.086 371.634 465.104C371.338 465.14 370.912 465.173 370.379 465.204C369.307 465.265 367.763 465.319 365.862 465.362C362.056 465.45 356.802 465.5 351 465.5V464.5C356.798 464.5 362.044 464.45 365.838 464.363C367.737 464.319 369.268 464.266 370.321 464.206C370.85 464.175 371.25 464.143 371.513 464.111C371.647 464.095 371.729 464.08 371.77 464.07C371.795 464.064 371.779 464.066 371.747 464.082C371.732 464.089 371.686 464.114 371.637 464.163C371.586 464.215 371.5 464.329 371.5 464.5H372.5ZM351 465.5H330V464.5H351V465.5ZM286 465.5H212.7V464.5H286V465.5ZM212.7 465.5H139.3V464.5H212.7V465.5ZM138.807 464.918L166.807 296.918L167.793 297.082L139.793 465.082L138.807 464.918ZM166.807 296.918L194.807 128.918L195.793 129.082L167.793 297.082L166.807 296.918ZM195.3 128.5H206.5V129.5H195.3V128.5ZM206.5 128.5H217.7V129.5H206.5V128.5ZM218.188 129.109L210.888 161.809L209.912 161.591L217.212 128.891L218.188 129.109ZM233.5 165.5V195H232.5V165.5H233.5ZM233 195.5H226.5V194.5H233V195.5ZM226.5 195.5C224.689 195.5 223.043 195.425 221.842 195.284C221.245 195.214 220.736 195.126 220.366 195.015C220.184 194.96 220.004 194.891 219.859 194.797C219.734 194.716 219.5 194.526 219.5 194.2H220.5C220.5 193.999 220.357 193.928 220.404 193.959C220.432 193.977 220.506 194.013 220.653 194.057C220.939 194.143 221.38 194.223 221.958 194.291C223.107 194.425 224.711 194.5 226.5 194.5V195.5ZM219.502 194.25C219.495 194.176 219.503 194.097 219.507 194.06C219.513 194.007 219.522 193.943 219.532 193.871C219.554 193.726 219.588 193.531 219.631 193.292C219.718 192.814 219.848 192.145 220.015 191.314C220.348 189.651 220.83 187.333 221.412 184.581C222.577 179.076 224.143 171.831 225.724 164.618C227.306 157.405 228.903 150.222 230.13 144.842C230.743 142.152 231.264 139.911 231.645 138.342C231.835 137.558 231.991 136.938 232.107 136.512C232.164 136.3 232.213 136.13 232.253 136.009C232.272 135.951 232.293 135.891 232.315 135.841C232.324 135.818 232.343 135.777 232.372 135.734C232.385 135.714 232.414 135.673 232.46 135.631C232.497 135.598 232.615 135.5 232.8 135.5V136.5C232.982 136.5 233.097 136.404 233.129 136.374C233.172 136.336 233.196 136.3 233.205 136.287C233.216 136.27 233.223 136.257 233.226 136.252C233.227 136.25 233.229 136.245 233.229 136.245C233.229 136.245 233.231 136.242 233.23 136.242C233.23 136.242 233.23 136.244 233.228 136.248C233.227 136.252 233.225 136.257 233.222 136.264C233.217 136.278 233.211 136.296 233.203 136.319C233.172 136.415 233.128 136.566 233.072 136.773C232.96 137.186 232.807 137.796 232.617 138.578C232.238 140.14 231.718 142.376 231.105 145.064C229.879 150.441 228.282 157.62 226.701 164.832C225.12 172.044 223.554 179.286 222.391 184.788C221.809 187.539 221.328 189.853 220.995 191.51C220.829 192.339 220.7 193.002 220.615 193.471C220.572 193.706 220.541 193.889 220.521 194.02C220.511 194.085 220.505 194.133 220.502 194.165C220.497 194.213 220.502 194.193 220.498 194.15L219.502 194.25ZM232.8 135.5C232.987 135.5 233.109 135.599 233.161 135.654C233.214 135.708 233.241 135.762 233.253 135.785C233.277 135.835 233.287 135.878 233.291 135.892C233.299 135.928 233.304 135.961 233.306 135.978C233.311 136.019 233.315 136.07 233.318 136.123C233.324 136.232 233.331 136.389 233.337 136.588C233.349 136.987 233.362 137.573 233.373 138.323C233.397 139.826 233.419 141.996 233.437 144.671C233.475 150.023 233.5 157.399 233.5 165.5H232.5C232.5 157.401 232.475 150.027 232.438 144.679C232.419 142.004 232.397 139.837 232.374 138.339C232.362 137.59 232.35 137.01 232.338 136.619C232.331 136.422 232.325 136.278 232.32 136.184C232.317 136.136 232.314 136.109 232.313 136.099C232.312 136.091 232.313 136.105 232.319 136.127C232.32 136.135 232.33 136.173 232.352 136.22C232.363 136.242 232.39 136.294 232.441 136.348C232.493 136.401 232.614 136.5 232.8 136.5V135.5ZM292.39 194.102C292.46 194.452 292.232 194.683 292.096 194.782C291.953 194.886 291.772 194.958 291.598 195.013C291.239 195.126 290.736 195.214 290.146 195.284C288.957 195.425 287.31 195.5 285.5 195.5V194.5C287.29 194.5 288.893 194.425 290.029 194.291C290.601 194.223 291.03 194.143 291.299 194.059C291.364 194.038 291.414 194.019 291.451 194.003C291.469 193.995 291.483 193.988 291.493 193.982C291.502 193.977 291.507 193.974 291.506 193.974C291.506 193.974 291.505 193.975 291.502 193.978C291.499 193.98 291.495 193.984 291.49 193.989C291.48 194 291.464 194.019 291.448 194.047C291.412 194.111 291.39 194.201 291.41 194.298L292.39 194.102ZM285.5 195.5H279V194.5H285.5V195.5ZM278.5 194.998L278.6 166.198L279.6 166.202L279.5 195.002L278.5 194.998ZM278.6 166.198L278.7 137.498L279.7 137.502L279.6 166.202L278.6 166.198ZM279.688 137.39L285.988 165.39L285.012 165.61L278.712 137.61L279.688 137.39ZM285.988 165.389C287.738 173.089 289.338 180.165 290.5 185.366C291.082 187.966 291.554 190.099 291.881 191.607C292.044 192.36 292.172 192.959 292.258 193.383C292.302 193.595 292.335 193.765 292.358 193.891C292.37 193.953 292.379 194.007 292.386 194.051C292.39 194.081 292.4 194.143 292.4 194.2H291.4C291.4 194.232 291.404 194.245 291.397 194.202C291.393 194.172 291.385 194.129 291.375 194.071C291.354 193.956 291.322 193.793 291.279 193.584C291.193 193.166 291.067 192.571 290.904 191.818C290.577 190.314 290.106 188.184 289.525 185.584C288.362 180.385 286.762 173.311 285.012 165.611L285.988 165.389ZM220.4 7.60001L219.466 7.24401L219.466 7.2435L220.4 7.60001ZM187.1 24.6L187.38 25.5601L187.378 25.5606L187.1 24.6ZM159.8 32.5L158.906 32.0528L159.101 31.6611L159.522 31.5394L159.8 32.5ZM141.7 68.7L142.594 69.1472L142.594 69.1482L141.7 68.7ZM123.5 105L124.394 105.448L124.121 105.993L123.512 106L123.5 105ZM107 105.2L106.982 104.2L106.988 104.2L107 105.2ZM90.5 105.5L89.5008 105.461L89.5375 104.517L90.4818 104.5L90.5 105.5ZM90.2 113.2L89.2007 113.162L89.2008 113.161L90.2 113.2ZM89.9 121L90.8993 121.038L90.8623 122H89.9V121ZM76 121V122H75V121H76ZM76 105V104H77V105H76ZM0 105H-1V104H0V105ZM0 319.2L0.126254 320.192L-1 320.335V319.2H0ZM5.5 318.5L5.37374 317.508L5.38681 317.506L5.5 318.5ZM42.6 308.4L42.2471 307.464L42.2506 307.463L42.6 308.4ZM159.3 218L160.139 218.544L160.135 218.55L159.3 218ZM165.6 210.5L166.582 210.687L166.582 210.689L165.6 210.5ZM380 512L380.985 511.829L381.189 513H380V512ZM379.6 509.7L380.57 509.457L380.579 509.493L380.585 509.529L379.6 509.7ZM377.5 496.5L376.511 496.648L376.511 496.646L377.5 496.5ZM375.5 483.2L376.473 482.968L376.482 483.008L376.488 483.048L375.5 483.2ZM391.2 481L392.176 480.783L392.447 482H391.2V481ZM390.6 478.3L389.624 478.517L389.62 478.501L389.617 478.484L390.6 478.3ZM350.5 214.5L349.653 215.031L349.65 215.027L350.5 214.5ZM380 251L380.707 250.293L380.708 250.294L380 251ZM490.2 315L490.454 314.033L490.458 314.034L490.2 315ZM506.5 318.5L506.603 317.505L506.615 317.507L506.626 317.508L506.5 318.5ZM512 319.2H513V320.335L511.874 320.192L512 319.2ZM512 165V164H513V165H512ZM497 165L496 164.997L496.003 164H497V165ZM496.8 232.4L497.8 232.403L497.8 232.404L496.8 232.4ZM496.5 299.7L497.5 299.704L497.494 301.017L496.23 300.663L496.5 299.7ZM489 297.6L489.27 296.637L489.27 296.637L489 297.6ZM481.5 295.5L481.23 296.463L480.503 296.259L480.5 295.503L481.5 295.5ZM481.2 208.2L480.2 208.203L480.2 208.202L481.2 208.2ZM481 121L480 121.002L479.998 120H481V121ZM497 121V120H498V121H497ZM497 151V152H496V151H497ZM512 151H513V152H512V151ZM512 105V104H513V105H512ZM388.5 105V106H387.881L387.605 105.446L388.5 105ZM370.4 68.7L371.293 68.2508L371.295 68.2538L370.4 68.7ZM352.2 32.5L352.478 31.5395L352.897 31.6609L353.093 32.0508L352.2 32.5ZM323.2 24.1L322.922 25.0605L322.922 25.0605L323.2 24.1ZM294.2 15.7L293.922 16.6605L293.45 16.5239L293.27 16.0671L294.2 15.7ZM291.2 8.10001L290.27 8.4672L290.266 8.45651L291.2 8.10001ZM288.3 0.5L288.309 -0.499957L288.991 -0.493662L289.234 0.143494L288.3 0.5ZM255.8 0.199982L255.806 -0.800004L255.809 -0.799976L255.8 0.199982ZM223.3 0L222.366 -0.356506L222.613 -1.00425L223.306 -0.999981L223.3 0ZM274.1 26.2L275.074 26.4261L275.073 26.4324L274.1 26.2ZM271.4 37.5L272.373 37.7324L272.193 38.4849L271.419 38.4998L271.4 37.5ZM255.8 37.8L255.819 38.7998L255.813 38.7999L255.8 37.8ZM240.2 38L240.213 38.9999L239.407 39.0103L239.226 38.2249L240.2 38ZM238.1 28.9L239.072 28.6666L239.074 28.6751L238.1 28.9ZM235.4 17.4L236.37 17.1575L236.374 17.1739L236.378 17.1905L235.4 17.4ZM234.8 15L233.83 15.2425L233.519 14H234.8V15ZM276.7 15V14H277.959L277.674 15.2261L276.7 15ZM30.2 295.4L30.8 296.2L30.7587 296.231L30.7145 296.257L30.2 295.4ZM22.2 297.9L22.4715 298.862L22.4676 298.864L22.2 297.9ZM15 299.9L15.2676 300.864L14 301.216V299.9H15ZM15 121H14V120H15V121ZM31 121V120H32V121H31ZM330 465V464H331V465H330ZM330 481V482H329V481H330ZM358.8 481V480H359.641L359.785 480.828L358.8 481ZM359.9 487.3L360.885 487.128L360.886 487.131L359.9 487.3ZM149.8 497V498H148.506L148.832 496.748L149.8 497ZM150.4 494.7L151.374 494.925L151.371 494.939L151.368 494.952L150.4 494.7ZM151.6 486.7L152.593 486.822L152.592 486.828L151.6 486.7ZM152.3 481L151.307 480.878L151.415 480H152.3V481ZM286 481H287V482H286V481ZM286 465H285V464H286V465ZM221.334 7.956C220.521 10.0903 219.604 12.1041 218.782 13.6456C218.372 14.4145 217.977 15.0826 217.622 15.5948C217.445 15.8502 217.267 16.0824 217.093 16.2738C216.934 16.448 216.715 16.6604 216.447 16.7944L215.553 15.0056C215.485 15.0396 215.503 15.0488 215.614 14.9277C215.708 14.8239 215.83 14.6685 215.978 14.4552C216.273 14.0299 216.628 13.4355 217.018 12.7044C217.796 11.2459 218.679 9.30969 219.466 7.24401L221.334 7.956ZM216.447 16.7944C216.268 16.8842 215.894 17.014 215.463 17.1571C214.994 17.3133 214.355 17.5177 213.569 17.7637C211.997 18.256 209.821 18.9197 207.2 19.7076C201.959 21.2837 194.932 23.3596 187.38 25.5601L186.82 23.6399C194.368 21.4405 201.391 19.3663 206.625 17.7924C209.242 17.0053 211.41 16.344 212.972 15.855C213.753 15.6104 214.379 15.4101 214.832 15.2593C215.059 15.1838 215.238 15.1223 215.37 15.0748C215.519 15.021 215.563 15.0005 215.553 15.0056L216.447 16.7944ZM187.378 25.5606L160.078 33.4606L159.522 31.5394L186.822 23.6394L187.378 25.5606ZM160.694 32.9472L142.594 69.1472L140.806 68.2528L158.906 32.0528L160.694 32.9472ZM142.594 69.1482L124.394 105.448L122.606 104.552L140.806 68.2518L142.594 69.1482ZM123.512 106L107.012 106.2L106.988 104.2L123.488 104L123.512 106ZM107.018 106.2L90.5182 106.5L90.4818 104.5L106.982 104.2L107.018 106.2ZM91.4992 105.539L91.1992 113.239L89.2008 113.161L89.5008 105.461L91.4992 105.539ZM91.1993 113.238L90.8993 121.038L88.9007 120.962L89.2007 113.162L91.1993 113.238ZM75 121V113H77V121H75ZM75 113V105H77V113H75ZM76 106H38V104H76V106ZM38 106H0V104H38V106ZM1 105V212.1H-1V105H1ZM1 212.1V319.2H-1V212.1H1ZM-0.126254 318.208L5.37375 317.508L5.62625 319.492L0.126254 320.192L-0.126254 318.208ZM5.38681 317.506C13.17 316.62 30.8826 311.751 42.2471 307.464L42.9529 309.336C31.5174 313.649 13.63 318.58 5.61319 319.494L5.38681 317.506ZM42.2506 307.463C90.0697 289.63 132.792 256.457 158.465 217.45L160.135 218.55C134.208 257.943 91.1303 291.37 42.9494 309.337L42.2506 307.463ZM158.461 217.456C160.857 213.761 162.565 211.31 163.636 210.042C163.906 209.723 164.157 209.453 164.384 209.251C164.498 209.15 164.624 209.05 164.758 208.967C164.882 208.891 165.079 208.788 165.326 208.754C165.611 208.716 165.973 208.775 166.264 209.051C166.515 209.287 166.595 209.573 166.625 209.736C166.683 210.057 166.635 210.408 166.582 210.687L164.618 210.313C164.665 210.067 164.645 210.027 164.657 210.095C164.664 210.133 164.703 210.327 164.893 210.506C165.124 210.724 165.406 210.762 165.593 210.736C165.674 210.725 165.732 210.705 165.761 210.692C165.777 210.686 165.789 210.68 165.796 210.676C165.803 210.673 165.807 210.67 165.807 210.67C165.808 210.669 165.8 210.675 165.782 210.688C165.765 210.701 165.742 210.72 165.712 210.747C165.587 210.858 165.407 211.046 165.164 211.333C164.185 212.49 162.543 214.839 160.139 218.544L158.461 217.456ZM166.582 210.689C165.835 214.572 154.689 281.474 143.724 347.601C138.243 380.657 132.808 413.51 128.745 438.18C126.713 450.515 125.023 460.804 123.842 468.049C123.251 471.672 122.788 474.533 122.472 476.508C122.314 477.496 122.193 478.261 122.112 478.788C122.071 479.052 122.041 479.254 122.021 479.393C122.011 479.464 122.004 479.514 122 479.547C121.992 479.614 122 479.567 122 479.5H120C120 479.413 120.014 479.314 120.016 479.298C120.022 479.248 120.031 479.184 120.041 479.11C120.063 478.96 120.094 478.75 120.135 478.484C120.217 477.951 120.339 477.182 120.497 476.193C120.813 474.214 121.277 471.351 121.868 467.727C123.049 460.48 124.739 450.19 126.771 437.855C130.835 413.184 136.27 380.33 141.751 347.274C152.711 281.176 163.865 214.228 164.618 210.311L166.582 210.689ZM122 479.5C122 479.546 122.007 479.542 121.995 479.515C121.982 479.483 121.965 479.469 121.971 479.475C122.011 479.509 122.186 479.617 122.696 479.719C123.707 479.922 125.48 480 128.5 480V482C125.52 482 123.543 481.928 122.304 481.681C121.689 481.558 121.114 481.366 120.685 481.006C120.19 480.591 120 480.048 120 479.5H122ZM128.5 480C131.158 480 133.102 480.099 134.4 480.313C135.039 480.419 135.604 480.564 136.034 480.787C136.452 481.004 137 481.443 137 482.2H135C135 482.557 135.273 482.646 135.113 482.563C134.965 482.486 134.648 482.381 134.075 482.287C132.948 482.101 131.142 482 128.5 482V480ZM137 482.2C137 482.454 136.932 483.063 136.834 483.84C136.732 484.657 136.584 485.75 136.403 487.039C136.039 489.62 135.539 492.999 134.988 496.553L133.012 496.247C133.561 492.701 134.061 489.33 134.422 486.761C134.603 485.475 134.749 484.393 134.85 483.591C134.9 483.19 134.939 482.862 134.965 482.616C134.977 482.493 134.987 482.394 134.993 482.318C134.996 482.281 134.998 482.251 134.999 482.229C135 482.206 135 482.198 135 482.2H137ZM134.988 496.553C134.439 500.099 133.939 503.47 133.578 506.039C133.397 507.325 133.251 508.407 133.15 509.209C133.1 509.61 133.061 509.938 133.035 510.184C133.023 510.307 133.013 510.406 133.007 510.482C133.004 510.519 133.002 510.549 133.001 510.571C133 510.594 133 510.602 133 510.6H131C131 510.346 131.068 509.737 131.166 508.96C131.268 508.143 131.416 507.05 131.597 505.761C131.961 503.18 132.461 499.801 133.012 496.247L134.988 496.553ZM133 510.6C133 510.247 132.804 510.03 132.714 509.953C132.632 509.882 132.576 509.867 132.615 509.882C132.685 509.909 132.866 509.96 133.224 510.017C133.922 510.129 135.069 510.233 136.817 510.326C140.302 510.513 146.042 510.65 155.049 510.75C173.054 510.95 204.048 511 256 511V513C204.052 513 173.046 512.95 155.026 512.75C146.02 512.65 140.242 512.512 136.711 512.324C134.952 512.23 133.716 512.121 132.909 511.992C132.514 511.929 132.162 511.852 131.887 511.745C131.754 511.693 131.572 511.609 131.407 511.467C131.235 511.318 131 511.028 131 510.6H133ZM256 511H380V513H256V511ZM379.015 512.171L378.615 509.871L380.585 509.529L380.985 511.829L379.015 512.171ZM378.63 509.943C378.466 509.287 378.158 507.429 377.787 505.054C377.411 502.651 376.961 499.647 376.511 496.648L378.489 496.352C378.939 499.353 379.389 502.349 379.763 504.746C380.142 507.171 380.434 508.913 380.57 509.457L378.63 509.943ZM376.511 496.646C375.611 490.548 374.711 484.651 374.512 483.352L376.488 483.048C376.689 484.349 377.589 490.252 378.489 496.354L376.511 496.646ZM374.527 483.432C374.465 483.17 374.402 482.894 374.368 482.634C374.334 482.376 374.316 482.062 374.392 481.741C374.475 481.391 374.657 481.074 374.95 480.823C375.223 480.589 375.547 480.448 375.867 480.353C376.488 480.17 377.352 480.091 378.472 480.049C379.616 480.006 381.129 480 383.1 480V482C381.121 482 379.647 482.006 378.547 482.048C377.423 482.09 376.787 482.167 376.433 482.272C376.265 482.321 376.234 482.357 376.254 482.34C376.294 482.305 376.328 482.245 376.339 482.2C376.343 482.183 376.331 482.222 376.35 482.371C376.37 482.519 376.41 482.705 376.473 482.968L374.527 483.432ZM383.1 480H391.2V482H383.1V480ZM390.224 481.217L389.624 478.517L391.576 478.083L392.176 480.783L390.224 481.217ZM389.617 478.484C389.315 476.871 379.112 416.053 367.013 343.164L368.987 342.836C381.088 415.747 391.285 476.529 391.583 478.116L389.617 478.484ZM367.013 343.164C354.909 270.237 344.716 209.579 344.422 208.21L346.378 207.79C346.684 209.221 356.891 269.963 368.987 342.836L367.013 343.164ZM344.422 208.21C344.396 208.086 344.371 207.931 344.374 207.767C344.377 207.639 344.398 207.299 344.661 207.005C345 206.627 345.449 206.618 345.709 206.675C345.935 206.725 346.108 206.834 346.202 206.899C346.568 207.151 347.011 207.66 347.461 208.231C348.419 209.449 349.792 211.46 351.35 213.973L349.65 215.027C348.108 212.54 346.781 210.601 345.889 209.469C345.668 209.187 345.48 208.965 345.329 208.801C345.254 208.719 345.192 208.657 345.143 208.611C345.119 208.589 345.1 208.572 345.086 208.56C345.072 208.549 345.065 208.544 345.066 208.545C345.067 208.545 345.082 208.556 345.11 208.57C345.136 208.583 345.194 208.609 345.278 208.628C345.462 208.669 345.852 208.673 346.151 208.339C346.374 208.09 346.373 207.827 346.374 207.808C346.375 207.753 346.367 207.739 346.378 207.79L344.422 208.21ZM351.347 213.969C360.202 228.097 367.353 236.939 380.707 250.293L379.293 251.707C365.847 238.261 358.598 229.303 349.653 215.031L351.347 213.969ZM380.708 250.294C410.887 280.572 450.631 303.579 490.454 314.033L489.946 315.967C449.769 305.421 409.713 282.228 379.292 251.706L380.708 250.294ZM490.458 314.034C496.453 315.633 503.788 317.214 506.603 317.505L506.397 319.495C503.412 319.186 495.947 317.567 489.942 315.966L490.458 314.034ZM506.626 317.508L512.126 318.208L511.874 320.192L506.374 319.492L506.626 317.508ZM511 319.2V242.1H513V319.2H511ZM511 242.1V165H513V242.1H511ZM512 166H504.5V164H512V166ZM504.5 166H497V164H504.5V166ZM498 165.003L497.8 232.403L495.8 232.397L496 164.997L498 165.003ZM497.8 232.404L497.5 299.704L495.5 299.696L495.8 232.396L497.8 232.404ZM496.23 300.663L488.73 298.563L489.27 296.637L496.77 298.737L496.23 300.663ZM488.73 298.563L481.23 296.463L481.77 294.537L489.27 296.637L488.73 298.563ZM480.5 295.503L480.2 208.203L482.2 208.197L482.5 295.497L480.5 295.503ZM480.2 208.202L480 121.002L482 120.998L482.2 208.198L480.2 208.202ZM481 120H489V122H481V120ZM489 120H497V122H489V120ZM498 121V136H496V121H498ZM498 136V151H496V136H498ZM497 150H504.5V152H497V150ZM504.5 150H512V152H504.5V150ZM511 151V128H513V151H511ZM511 128V105H513V128H511ZM512 106H450.2V104H512V106ZM450.2 106H388.5V104H450.2V106ZM387.605 105.446L369.505 69.1462L371.295 68.2538L389.395 104.554L387.605 105.446ZM369.507 69.1492L351.307 32.9492L353.093 32.0508L371.293 68.2508L369.507 69.1492ZM351.922 33.4605L322.922 25.0605L323.478 23.1395L352.478 31.5395L351.922 33.4605ZM322.922 25.0605L293.922 16.6605L294.478 14.7395L323.478 23.1395L322.922 25.0605ZM293.27 16.0671L290.27 8.46717L292.13 7.73284L295.13 15.3328L293.27 16.0671ZM290.266 8.45651L287.366 0.856506L289.234 0.143494L292.134 7.7435L290.266 8.45651ZM288.291 1.49996L255.791 1.19994L255.809 -0.799976L288.309 -0.499957L288.291 1.49996ZM255.794 1.19996L223.294 0.999981L223.306 -0.999981L255.806 -0.799999L255.794 1.19996ZM224.234 0.356506L221.334 7.95651L219.466 7.2435L222.366 -0.356506L224.234 0.356506ZM275.073 26.4324L272.373 37.7324L270.427 37.2676L273.127 25.9676L275.073 26.4324ZM271.419 38.4998L255.819 38.7998L255.781 36.8002L271.381 36.5002L271.419 38.4998ZM255.813 38.7999L240.213 38.9999L240.187 37.0001L255.787 36.8001L255.813 38.7999ZM239.226 38.2249L237.126 29.1249L239.074 28.6751L241.174 37.7751L239.226 38.2249ZM237.128 29.1334C235.929 24.138 234.725 19.0242 234.422 17.6095L236.378 17.1905C236.675 18.5757 237.871 23.662 239.072 28.6666L237.128 29.1334ZM234.43 17.6425L233.83 15.2425L235.77 14.7575L236.37 17.1575L234.43 17.6425ZM234.8 14H255.7V16H234.8V14ZM255.7 14H276.7V16H255.7V14ZM277.674 15.2261L275.074 26.4261L273.126 25.9739L275.726 14.7739L277.674 15.2261ZM32 207.9C32 231.852 31.9 253.656 31.75 269.509C31.6749 277.436 31.5874 283.878 31.4935 288.358C31.4466 290.598 31.398 292.353 31.3484 293.56C31.3236 294.162 31.2982 294.638 31.2718 294.973C31.2588 295.137 31.2443 295.286 31.2268 295.405C31.2185 295.461 31.2058 295.536 31.1855 295.613C31.1757 295.65 31.1571 295.715 31.1244 295.789C31.108 295.826 31.0199 296.035 30.8 296.2L29.6 294.6C29.3863 294.76 29.3045 294.959 29.2943 294.983C29.2679 295.042 29.2555 295.088 29.252 295.102C29.2441 295.131 29.244 295.141 29.2482 295.113C29.2557 295.062 29.2661 294.967 29.278 294.816C29.3014 294.519 29.3256 294.073 29.3501 293.478C29.3989 292.291 29.4471 290.552 29.494 288.317C29.5876 283.847 29.6751 277.414 29.75 269.491C29.9 253.644 30 231.848 30 207.9H32ZM30.7145 296.257C30.4813 296.397 30.0509 296.556 29.615 296.707C29.1315 296.875 28.501 297.079 27.7714 297.305C26.3105 297.758 24.4267 298.311 22.4715 298.862L21.9285 296.938C23.8733 296.389 25.7395 295.842 27.1786 295.395C27.899 295.171 28.506 294.975 28.96 294.818C29.1874 294.739 29.3693 294.672 29.5045 294.619C29.658 294.558 29.7003 294.534 29.6855 294.543L30.7145 296.257ZM22.4676 298.864L15.2676 300.864L14.7324 298.936L21.9324 296.936L22.4676 298.864ZM14 299.9V210.4H16V299.9H14ZM14 210.4V121H16V210.4H14ZM15 120H23V122H15V120ZM23 120H31V122H23V120ZM32 121V207.9H30V121H32ZM331 465V473H329V465H331ZM331 473V481H329V473H331ZM330 480H344.4V482H330V480ZM344.4 480H358.8V482H344.4V480ZM359.785 480.828L360.885 487.128L358.915 487.472L357.815 481.172L359.785 480.828ZM360.886 487.131C361.187 488.891 361.464 490.676 361.666 492.138C361.863 493.566 362 494.767 362 495.3H360C360 494.933 359.887 493.884 359.684 492.412C359.486 490.974 359.213 489.209 358.914 487.469L360.886 487.131ZM362 495.3C362 495.632 361.888 495.97 361.631 496.254C361.403 496.505 361.112 496.659 360.84 496.765C360.303 496.973 359.503 497.117 358.371 497.235C356.069 497.475 352.004 497.637 344.928 497.75C330.756 497.975 304.345 498 255.4 498V496C304.355 496 330.744 495.975 344.897 495.75C351.984 495.638 355.963 495.475 358.164 495.246C359.283 495.13 359.849 495.004 360.116 494.9C360.246 494.85 360.215 494.838 360.149 494.911C360.051 495.018 360 495.168 360 495.3H362ZM255.4 498H149.8V496H255.4V498ZM148.832 496.748L149.432 494.448L151.368 494.952L150.768 497.252L148.832 496.748ZM149.426 494.475C149.712 493.235 150.205 489.696 150.608 486.572L152.592 486.828C152.195 489.904 151.688 493.565 151.374 494.925L149.426 494.475ZM150.607 486.578L151.307 480.878L153.293 481.122L152.593 486.822L150.607 486.578ZM152.3 480H219.1V482H152.3V480ZM219.1 480H286V482H219.1V480ZM285 481V473H287V481H285ZM285 473V465H287V473H285ZM286 464H330V466H286V464ZM76 120H89.9V122H76V120Z" fill="black" mask="url(#path-1-inside-1_569_2093)"/>
<path d="M300 473V481H308H316V473V465H308H300V473Z" fill="black"/>
<path d="M61 143V151H69H77V143V135H69H61V143Z" fill="black"/>
<path d="M91 143V151H98.5H106V143V135H98.5H91V143Z" fill="black"/>
</svg>
